<?xml version="1.0" encoding="us-ascii" standalone="no"?><svg xmlns="http://www.w3.org/2000/svg" xmlns:xlink="http://www.w3.org/1999/xlink" contentStyleType="text/css" height="711px" preserveAspectRatio="none" style="width:700px;height:711px;background:#FFFFFF;" version="1.1" viewBox="0 0 700 711" width="700px" zoomAndPan="magnify"><defs/><g><!--cluster Sistema de Transporte P?blico--><g id="cluster_Sistema de Transporte P&#250;blico"><path d="M8.5,6 L230.5,6 A3.75,3.75 0 0 1 233,8.5 L240,28.4883 L686.5,28.4883 A2.5,2.5 0 0 1 689,30.9883 L689,701.92 A2.5,2.5 0 0 1 686.5,704.42 L8.5,704.42 A2.5,2.5 0 0 1 6,701.92 L6,8.5 A2.5,2.5 0 0 1 8.5,6 " fill="none" style="stroke:#000000;stroke-width:1.5;"/><line style="stroke:#000000;stroke-width:1.5;" x1="6" x2="240" y1="28.4883" y2="28.4883"/><text fill="#000000" font-family="sans-serif" font-size="14" font-weight="bold" lengthAdjust="spacing" textLength="221" x="10" y="21.5352">Sistema de Transporte P&#250;blico</text></g><!--class Estado--><g id="elem_Estado"><rect fill="#F1F1F1" height="26.4883" id="Estado" rx="2.5" ry="2.5" style="stroke:#181818;stroke-width:0.5;" width="52" x="200" y="41"/><text fill="#000000" font-family="sans-serif" font-size="14" lengthAdjust="spacing" textLength="46" x="203" y="59.5352">Estado</text></g><!--class Servicio--><g id="elem_Servicio"><rect fill="#F1F1F1" height="26.4883" id="Servicio" rx="2.5" ry="2.5" style="stroke:#181818;stroke-width:0.5;" width="59" x="196.5" y="144.49"/><text fill="#000000" font-family="sans-serif" font-size="14" lengthAdjust="spacing" textLength="53" x="199.5" y="163.0252">Servicio</text></g><!--class Ruta--><g id="elem_Ruta"><rect fill="#F1F1F1" height="26.4883" id="Ruta" rx="2.5" ry="2.5" style="stroke:#181818;stroke-width:0.5;" width="37" x="232.5" y="351.47"/><text fill="#000000" font-family="sans-serif" font-size="14" lengthAdjust="spacing" textLength="31" x="235.5" y="370.0052">Ruta</text></g><!--class Flota--><g id="elem_Flota"><rect fill="#F1F1F1" height="26.4883" id="Flota" rx="2.5" ry="2.5" style="stroke:#181818;stroke-width:0.5;" width="40" x="180" y="661.93"/><text fill="#000000" font-family="sans-serif" font-size="14" lengthAdjust="spacing" textLength="34" x="183" y="680.4652">Flota</text></g><!--class Sistema_de_Monitoreo--><g id="elem_Sistema_de_Monitoreo"><rect fill="#F1F1F1" height="26.4883" id="Sistema_de_Monitoreo" rx="2.5" ry="2.5" style="stroke:#181818;stroke-width:0.5;" width="161" x="415.5" y="247.98"/><text fill="#000000" font-family="sans-serif" font-size="14" lengthAdjust="spacing" textLength="155" x="418.5" y="266.5152">Sistema_de_Monitoreo</text></g><!--class Horario--><g id="elem_Horario"><rect fill="#F1F1F1" height="26.4883" id="Horario" rx="2.5" ry="2.5" style="stroke:#181818;stroke-width:0.5;" width="58" x="154" y="454.96"/><text fill="#000000" font-family="sans-serif" font-size="14" lengthAdjust="spacing" textLength="52" x="157" y="473.4952">Horario</text></g><!--class Parada--><g id="elem_Parada"><rect fill="#F1F1F1" height="26.4883" id="Parada" rx="2.5" ry="2.5" style="stroke:#181818;stroke-width:0.5;" width="53" x="247.5" y="454.96"/><text fill="#000000" font-family="sans-serif" font-size="14" lengthAdjust="spacing" textLength="47" x="250.5" y="473.4952">Parada</text></g><!--class Vehiculo--><g id="elem_Vehiculo"><rect fill="#F1F1F1" height="26.4883" id="Vehiculo" rx="2.5" ry="2.5" style="stroke:#181818;stroke-width:0.5;" width="65" x="399.5" y="558.44"/><text fill="#000000" font-family="sans-serif" font-size="14" lengthAdjust="spacing" textLength="59" x="402.5" y="576.9752">Vehiculo</text></g><!--class Incidencia--><g id="elem_Incidencia"><rect fill="#F1F1F1" height="26.4883" id="Incidencia" rx="2.5" ry="2.5" style="stroke:#181818;stroke-width:0.5;" width="75" x="427.5" y="351.47"/><text fill="#000000" font-family="sans-serif" font-size="14" lengthAdjust="spacing" textLength="69" x="430.5" y="370.0052">Incidencia</text></g><!--class Conductor--><g id="elem_Conductor"><rect fill="#F1F1F1" height="26.4883" id="Conductor" rx="2.5" ry="2.5" style="stroke:#181818;stroke-width:0.5;" width="79" x="301.5" y="247.98"/><text fill="#000000" font-family="sans-serif" font-size="14" lengthAdjust="spacing" textLength="73" x="304.5" y="266.5152">Conductor</text></g><!--class Persona--><g id="elem_Persona"><rect fill="#F1F1F1" height="26.4883" id="Persona" rx="2.5" ry="2.5" style="stroke:#181818;stroke-width:0.5;" width="61" x="159.5" y="558.44"/><text fill="#000000" font-family="sans-serif" font-size="14" lengthAdjust="spacing" textLength="55" x="162.5" y="576.9752">Persona</text></g><!--class Pasajero--><g id="elem_Pasajero"><rect fill="#F1F1F1" height="26.4883" id="Pasajero" rx="2.5" ry="2.5" style="stroke:#181818;stroke-width:0.5;" width="64" x="336" y="454.96"/><text fill="#000000" font-family="sans-serif" font-size="14" lengthAdjust="spacing" textLength="58" x="339" y="473.4952">Pasajero</text></g><!--class Tarifa--><g id="elem_Tarifa"><rect fill="#F1F1F1" height="26.4883" id="Tarifa" rx="2.5" ry="2.5" style="stroke:#181818;stroke-width:0.5;" width="46" x="308" y="558.44"/><text fill="#000000" font-family="sans-serif" font-size="14" lengthAdjust="spacing" textLength="40" x="311" y="576.9752">Tarifa</text></g><!--class M?todo_de_pago--><g id="elem_M&#233;todo_de_pago"><rect fill="#F1F1F1" height="26.4883" id="M&#233;todo_de_pago" rx="2.5" ry="2.5" style="stroke:#181818;stroke-width:0.5;" width="124" x="349" y="661.93"/><text fill="#000000" font-family="sans-serif" font-size="14" lengthAdjust="spacing" textLength="118" x="352" y="680.4652">M&#233;todo_de_pago</text></g><!--class Abono--><g id="elem_Abono"><rect fill="#F1F1F1" height="26.4883" id="Abono" rx="2.5" ry="2.5" style="stroke:#181818;stroke-width:0.5;" width="52" x="500" y="558.44"/><text fill="#000000" font-family="sans-serif" font-size="14" lengthAdjust="spacing" textLength="46" x="503" y="576.9752">Abono</text></g><!--link Estado to Servicio--><g id="link_Estado_Servicio"><path codeLine="7" d="M226,67.69 C226,87.17 226,118.65 226,138.19 " fill="none" id="Estado-to-Servicio" style="stroke:#181818;stroke-width:1.0;"/><polygon fill="#181818" points="226,144.19,230,135.19,226,139.19,222,135.19,226,144.19" style="stroke:#181818;stroke-width:1.0;"/><text fill="#000000" font-family="sans-serif" font-size="13" lengthAdjust="spacing" textLength="39" x="227" y="111.0584">ofrece</text></g><!--link Servicio to Ruta--><g id="link_Servicio_Ruta"><path codeLine="8" d="M227.53,171.25 C231.99,207.84 244.2534,308.4242 248.7334,345.1442 " fill="none" id="Servicio-to-Ruta" style="stroke:#181818;stroke-width:1.0;"/><polygon fill="#181818" points="249.46,351.1,252.3406,341.6818,248.8545,346.1368,244.3995,342.6507,249.46,351.1" style="stroke:#181818;stroke-width:1.0;"/><text fill="#000000" font-family="sans-serif" font-size="13" lengthAdjust="spacing" textLength="39" x="240.75" y="266.2884">ofrece</text></g><!--link Servicio to Flota--><g id="link_Servicio_Flota"><path codeLine="9" d="M196.18,162.86 C147.66,171.44 57,196.05 57,260.22 C57,260.22 57,260.22 57,572.69 C57,632.05 134.1493,658.4041 173.6893,668.2941 " fill="none" id="Servicio-to-Flota" style="stroke:#181818;stroke-width:1.0;"/><polygon fill="#181818" points="179.51,669.75,171.7496,663.6857,174.6594,668.5367,169.8084,671.4466,179.51,669.75" style="stroke:#181818;stroke-width:1.0;"/><text fill="#000000" font-family="sans-serif" font-size="13" lengthAdjust="spacing" textLength="54" x="58" y="421.5284">gestiona</text></g><!--link Servicio to Sistema_de_Monitoreo--><g id="link_Servicio_Sistema_de_Monitoreo"><path codeLine="10" d="M255.93,169.98 C306.59,189.03 403.3035,225.3793 456.5235,245.3793 " fill="none" id="Servicio-to-Sistema_de_Monitoreo" style="stroke:#181818;stroke-width:1.0;"/><polygon fill="#181818" points="462.14,247.49,455.1224,240.5797,457.4596,245.7311,452.3081,248.0683,462.14,247.49" style="stroke:#181818;stroke-width:1.0;"/><text fill="#000000" font-family="sans-serif" font-size="13" lengthAdjust="spacing" textLength="52" x="378.17" y="214.5484">controla</text></g><!--link Ruta to Horario--><g id="link_Ruta_Horario"><path codeLine="12" d="M232.23,370.12 C213.74,375.57 186.51,386.83 174,407.96 C165.52,422.28 168.7986,436.3242 174.2186,448.9842 " fill="none" id="Ruta-to-Horario" style="stroke:#181818;stroke-width:1.0;"/><polygon fill="#181818" points="176.58,454.5,176.7151,444.6521,174.6122,449.9035,169.3607,447.8006,176.58,454.5" style="stroke:#181818;stroke-width:1.0;"/><text fill="#000000" font-family="sans-serif" font-size="13" lengthAdjust="spacing" textLength="77" x="175" y="421.5284">opera seg&#250;n</text></g><!--reverse link Ruta to Parada--><g id="link_Ruta_Parada"><path codeLine="13" d="M256.4709,389.8635 C260.8809,409.3335 266.73,435.11 271.16,454.65 " fill="none" id="Ruta-backto-Parada" style="stroke:#181818;stroke-width:1.0;"/><polygon fill="#181818" points="253.82,378.16,251.2443,384.8954,256.4709,389.8635,259.0466,383.1281,253.82,378.16" style="stroke:#181818;stroke-width:1.0;"/><text fill="#000000" font-family="sans-serif" font-size="13" lengthAdjust="spacing" textLength="45" x="264.88" y="421.5284">incluye</text></g><!--link Vehiculo to Flota--><g id="link_Vehiculo_Flota"><path codeLine="15" d="M399.27,579.94 C360.22,588.87 297.52,604.18 276,614.93 C251.46,627.19 235.9204,639.8484 221.6304,653.2584 " fill="none" id="Vehiculo-to-Flota" style="stroke:#181818;stroke-width:1.0;"/><polygon fill="#181818" points="212.88,661.47,219.9924,660.281,221.6304,653.2584,214.518,654.4474,212.88,661.47" style="stroke:#181818;stroke-width:1.0;"/><text fill="#000000" font-family="sans-serif" font-size="13" lengthAdjust="spacing" textLength="72" x="277" y="628.4984">pertenece a</text></g><!--link Vehiculo to Incidencia--><g id="link_Vehiculo_Incidencia"><path codeLine="16" d="M440.45,558.15 C456.29,533.78 489.97,477.77 502,424.96 C503.68,417.59 504.66,415.03 502,407.96 C497.68,396.46 493.0127,390.1591 484.9527,382.5491 " fill="none" id="Vehiculo-to-Incidencia" style="stroke:#181818;stroke-width:1.0;"/><polygon fill="#181818" points="480.59,378.43,484.3879,387.5171,484.2256,381.8626,489.8801,381.7002,480.59,378.43" style="stroke:#181818;stroke-width:1.0;"/><text fill="#000000" font-family="sans-serif" font-size="13" lengthAdjust="spacing" textLength="32" x="493.98" y="473.2684">sufre</text></g><!--link Vehiculo to Sistema_de_Monitoreo--><g id="link_Vehiculo_Sistema_de_Monitoreo"><path codeLine="17" d="M455.89,557.97 C480.75,543.25 518.33,516.48 535,481.44 C680.24,176.14 556.16,342.38 540,304.47 C534.85,292.39 529.094,285.7992 519.644,278.3992 " fill="none" id="Vehiculo-to-Sistema_de_Monitoreo" style="stroke:#181818;stroke-width:1.0;"/><polygon fill="#181818" points="514.92,274.7,519.5398,283.3981,518.8566,277.7827,524.4721,277.0995,514.92,274.7" style="stroke:#181818;stroke-width:1.0;"/><text fill="#000000" font-family="sans-serif" font-size="13" lengthAdjust="spacing" textLength="123" x="569.63" y="421.5284">es monitoreado por</text></g><!--link Sistema_de_Monitoreo to Incidencia--><g id="link_Sistema_de_Monitoreo_Incidencia"><path codeLine="19" d="M492.2,274.67 C486.25,294.15 476.5532,325.8818 470.5832,345.4218 " fill="none" id="Sistema_de_Monitoreo-to-Incidencia" style="stroke:#181818;stroke-width:1.0;"/><polygon fill="#181818" points="468.83,351.16,475.2852,343.7215,470.291,346.3782,467.6343,341.384,468.83,351.16" style="stroke:#181818;stroke-width:1.0;"/><text fill="#000000" font-family="sans-serif" font-size="13" lengthAdjust="spacing" textLength="48" x="483.36" y="318.0384">registra</text></g><!--link Conductor to Ruta--><g id="link_Conductor_Ruta"><path codeLine="21" d="M329.96,274.67 C312.69,294.15 283.4299,327.13 266.1099,346.67 " fill="none" id="Conductor-to-Ruta" style="stroke:#181818;stroke-width:1.0;"/><polygon fill="#181818" points="262.13,351.16,271.0932,347.0782,265.4466,347.4183,265.1065,341.7717,262.13,351.16" style="stroke:#181818;stroke-width:1.0;"/><text fill="#000000" font-family="sans-serif" font-size="13" lengthAdjust="spacing" textLength="34" x="302.39" y="318.0384">sigue</text></g><!--link Conductor to Vehiculo--><g id="link_Conductor_Vehiculo"><path codeLine="22" d="M347.69,274.75 C360.7,299.55 389.66,356.94 407,407.96 C413.9,428.27 413.15,434.06 418,454.96 C423.82,480.05 427.88,485.87 431,511.44 C432.97,527.58 433.0646,540.3625 432.7146,552.3825 " fill="none" id="Conductor-to-Vehiculo" style="stroke:#181818;stroke-width:1.0;"/><polygon fill="#181818" points="432.54,558.38,436.8003,549.5002,432.6855,553.3821,428.8036,549.2674,432.54,558.38" style="stroke:#181818;stroke-width:1.0;"/><text fill="#000000" font-family="sans-serif" font-size="13" lengthAdjust="spacing" textLength="53" x="412.89" y="421.5284">conduce</text></g><!--link Conductor to Persona--><g id="link_Conductor_Persona"><path codeLine="23" d="M314.15,274.91 C264.12,300.48 159.57,363.67 136,454.96 C125.75,494.67 146.3359,524.1614 165.3059,544.8214 " fill="none" id="Conductor-to-Persona" style="stroke:#181818;stroke-width:1.0;"/><polygon fill="none" points="177.48,558.08,169.7255,540.7633,160.8864,548.8794,177.48,558.08" style="stroke:#181818;stroke-width:1.0;"/></g><!--link Conductor to Incidencia--><g id="link_Conductor_Incidencia"><path codeLine="24" d="M356.45,274.87 C380.35,294.43 421.3264,327.9704 445.0964,347.4204 " fill="none" id="Conductor-to-Incidencia" style="stroke:#181818;stroke-width:1.0;"/><polygon fill="#181818" points="449.74,351.22,445.3077,342.4248,445.8704,348.0536,440.2416,348.6163,449.74,351.22" style="stroke:#181818;stroke-width:1.0;"/><text fill="#000000" font-family="sans-serif" font-size="13" lengthAdjust="spacing" textLength="45" x="411.42" y="318.0384">reporta</text></g><!--link Pasajero to Vehiculo--><g id="link_Pasajero_Vehiculo"><path codeLine="26" d="M369.83,481.8 C372.1,494.38 376.84,513.88 386,528.44 C393.27,540.01 399.8333,546.6862 409.3933,554.2862 " fill="none" id="Pasajero-to-Vehiculo" style="stroke:#181818;stroke-width:1.0;"/><polygon fill="#181818" points="414.09,558.02,409.5341,549.2882,410.1761,554.9085,404.5558,555.5505,414.09,558.02" style="stroke:#181818;stroke-width:1.0;"/><text fill="#000000" font-family="sans-serif" font-size="13" lengthAdjust="spacing" textLength="39" x="387" y="525.0084">utiliza</text></g><!--link Pasajero to Persona--><g id="link_Pasajero_Persona"><path codeLine="27" d="M345.82,481.85 C311.61,501.35 262.0279,529.6262 227.8179,549.1262 " fill="none" id="Pasajero-to-Persona" style="stroke:#181818;stroke-width:1.0;"/><polygon fill="none" points="212.18,558.04,230.7892,554.3389,224.8467,543.9136,212.18,558.04" style="stroke:#181818;stroke-width:1.0;"/></g><!--link Pasajero to Tarifa--><g id="link_Pasajero_Tarifa"><path codeLine="28" d="M343.21,481.78 C332.11,488.86 320.15,498.82 314,511.44 C306.59,526.64 311.7167,540.5028 319.0967,552.8228 " fill="none" id="Pasajero-to-Tarifa" style="stroke:#181818;stroke-width:1.0;"/><polygon fill="#181818" points="322.18,557.97,320.9865,548.1937,319.6106,553.6807,314.1236,552.3048,322.18,557.97" style="stroke:#181818;stroke-width:1.0;"/><text fill="#000000" font-family="sans-serif" font-size="13" lengthAdjust="spacing" textLength="30" x="315" y="525.0084">paga</text></g><!--link Incidencia to Pasajero--><g id="link_Incidencia_Pasajero"><path codeLine="30" d="M427.05,370.86 C404.34,376.11 377.22,386.68 363,407.96 C353.71,421.86 356.1838,436.2318 360.7138,449.0718 " fill="none" id="Incidencia-to-Pasajero" style="stroke:#181818;stroke-width:1.0;stroke-dasharray:7.0,7.0;"/><polygon fill="#181818" points="362.71,454.73,363.4878,444.9119,361.0465,450.0148,355.9435,447.5735,362.71,454.73" style="stroke:#181818;stroke-width:1.0;"/><text fill="#000000" font-family="sans-serif" font-size="13" lengthAdjust="spacing" textLength="38" x="364" y="421.5284">afecta</text></g><!--link Tarifa to M?todo_de_pago--><g id="link_Tarifa_M&#233;todo_de_pago"><path codeLine="32" d="M337.86,585 C344.98,597.35 356.76,616.69 369,631.93 C377.55,642.58 384.0841,649.3643 392.6341,657.4243 " fill="none" id="Tarifa-to-M&#233;todo_de_pago" style="stroke:#181818;stroke-width:1.0;"/><polygon fill="#181818" points="397,661.54,393.1949,652.4559,393.3617,658.1103,387.7074,658.2771,397,661.54" style="stroke:#181818;stroke-width:1.0;"/><text fill="#000000" font-family="sans-serif" font-size="13" lengthAdjust="spacing" textLength="141" x="370" y="628.4984">se emplean para pagar</text></g><!--link Abono to M?todo_de_pago--><g id="link_Abono_M&#233;todo_de_pago"><path codeLine="33" d="M527.21,584.98 C527.81,598.04 526.73,618.61 516,631.93 C504.79,645.86 505.1147,648.8487 488.4947,655.1387 " fill="none" id="Abono-to-M&#233;todo_de_pago" style="stroke:#181818;stroke-width:1.0;"/><polygon fill="none" points="471.66,661.51,490.6185,660.7503,486.3709,649.5272,471.66,661.51" style="stroke:#181818;stroke-width:1.0;"/></g><!--SRC=[TPDDRi8m48NtESKeIwHmW2uYLLMhTe642keM6MS8RXrFP3kLwC-1UWMsNAnZOo10oCBAp_VcFSyuQrKXI6MbncmTxh5f_GOQR9PeNPQrGdw86Y6VAUUn4S38t0hZMh8UORhRBhMIbCDt1XdmzUYyg0YAeeGPsayb5TtbjB8eCO_0uMr4NZilu0vk0q-QzaIDpYioOe19qHOLBYPab2UB52IIZBUaaoGkqIzediaAgo96BLe13klTrkGdQbGKC1LMLD5U6Qcx3VPAlU5QoKw72ADJJAxbqV1U8Ddsi19UZEGUyn9Pr_6k1wXR-q47JNeEBUO9zE8CYguzBTOCsdvF7iXKdMJ1sKISghiKxXmuHjrtcByCO3ybJFdyyBm6Abmc2aU90qLoAfnuHqjNLfrNMdsbt3tgmkbCF-SHh_PZ4VN1eUS-7fSd0LDYXVAO98b3dSdkprD5eRTSAA8k_YaQXO6M3ma4WpIE-oMPbEn2c6M_sJy0]--></g></svg>