<?xml version="1.0" encoding="us-ascii" standalone="no"?><svg xmlns="http://www.w3.org/2000/svg" xmlns:xlink="http://www.w3.org/1999/xlink" contentStyleType="text/css" height="898px" preserveAspectRatio="none" style="width:1275px;height:898px;background:#FFFFFF;" version="1.1" viewBox="0 0 1275 898" width="1275px" zoomAndPan="magnify"><defs/><g><!--class Gobierno:Estado--><g id="elem_Gobierno:Estado"><rect codeLine="5" fill="#F1F1F1" height="50.9766" id="Gobierno:Estado" rx="2.5" ry="2.5" style="stroke:#181818;stroke-width:0.5;" width="120" x="449" y="7"/><text fill="#000000" font-family="sans-serif" font-size="14" lengthAdjust="spacing" textLength="114" x="452" y="25.5352">Gobierno:Estado</text><line style="stroke:#181818;stroke-width:0.5;" x1="450" x2="568" y1="33.4883" y2="33.4883"/><text fill="#000000" font-family="sans-serif" font-size="14" lengthAdjust="spacing" textLength="106" x="455" y="51.0234">pais = "Espa&#241;a"</text></g><!--class servicio_1:Servicio--><g id="elem_servicio_1:Servicio"><rect codeLine="9" fill="#F1F1F1" height="50.9766" id="servicio_1:Servicio" rx="2.5" ry="2.5" style="stroke:#181818;stroke-width:0.5;" width="188" x="415" y="143.22"/><text fill="#000000" font-family="sans-serif" font-size="14" lengthAdjust="spacing" textLength="125" x="446.5" y="161.7552">servicio_1:Servicio</text><line style="stroke:#181818;stroke-width:0.5;" x1="416" x2="602" y1="169.7083" y2="169.7083"/><text fill="#000000" font-family="sans-serif" font-size="14" lengthAdjust="spacing" textLength="176" x="421" y="187.2434">nombre = "L&#237;nea 1 Metro"</text></g><!--class ruta_101:Ruta--><g id="elem_ruta_101:Ruta"><rect codeLine="12" fill="#F1F1F1" height="50.9766" id="ruta_101:Ruta" rx="2.5" ry="2.5" style="stroke:#181818;stroke-width:0.5;" width="255" x="763.5" y="279.44"/><text fill="#000000" font-family="sans-serif" font-size="14" lengthAdjust="spacing" textLength="97" x="842.5" y="297.9752">ruta_101:Ruta</text><line style="stroke:#181818;stroke-width:0.5;" x1="764.5" x2="1017.5" y1="305.9283" y2="305.9283"/><text fill="#000000" font-family="sans-serif" font-size="14" lengthAdjust="spacing" textLength="243" x="769.5" y="323.4634">nombre = "Alameda-San Bernardo"</text></g><!--class horario_1:Horario--><g id="elem_horario_1:Horario"><rect codeLine="15" fill="#F1F1F1" height="67.4648" id="horario_1:Horario" rx="2.5" ry="2.5" style="stroke:#181818;stroke-width:0.5;" width="129" x="1013.5" y="407.42"/><text fill="#000000" font-family="sans-serif" font-size="14" lengthAdjust="spacing" textLength="123" x="1016.5" y="425.9552">horario_1:Horario</text><line style="stroke:#181818;stroke-width:0.5;" x1="1014.5" x2="1141.5" y1="433.9083" y2="433.9083"/><text fill="#000000" font-family="sans-serif" font-size="14" lengthAdjust="spacing" textLength="106" x="1019.5" y="451.4434">inicio = "05:30"</text><text fill="#000000" font-family="sans-serif" font-size="14" lengthAdjust="spacing" textLength="87" x="1019.5" y="467.9317">fin = "23:30"</text></g><!--class parada_1:Parada--><g id="elem_parada_1:Parada"><rect codeLine="19" fill="#F1F1F1" height="50.9766" id="parada_1:Parada" rx="2.5" ry="2.5" style="stroke:#181818;stroke-width:0.5;" width="206" x="562" y="415.66"/><text fill="#000000" font-family="sans-serif" font-size="14" lengthAdjust="spacing" textLength="115" x="607.5" y="434.1952">parada_1:Parada</text><line style="stroke:#181818;stroke-width:0.5;" x1="563" x2="767" y1="442.1483" y2="442.1483"/><text fill="#000000" font-family="sans-serif" font-size="14" lengthAdjust="spacing" textLength="194" x="568" y="459.6834">nombre = "Estaci&#243;n Central"</text></g><!--class parada_2:Parada--><g id="elem_parada_2:Parada"><rect codeLine="22" fill="#F1F1F1" height="50.9766" id="parada_2:Parada" rx="2.5" ry="2.5" style="stroke:#181818;stroke-width:0.5;" width="175" x="803.5" y="415.66"/><text fill="#000000" font-family="sans-serif" font-size="14" lengthAdjust="spacing" textLength="115" x="833.5" y="434.1952">parada_2:Parada</text><line style="stroke:#181818;stroke-width:0.5;" x1="804.5" x2="977.5" y1="442.1483" y2="442.1483"/><text fill="#000000" font-family="sans-serif" font-size="14" lengthAdjust="spacing" textLength="163" x="809.5" y="459.6834">nombre = "San Alberto"</text></g><!--class flota_1:Flota--><g id="elem_flota_1:Flota"><rect codeLine="25" fill="#F1F1F1" height="50.9766" id="flota_1:Flota" rx="2.5" ry="2.5" style="stroke:#181818;stroke-width:0.5;" width="193" x="363.5" y="840.81"/><text fill="#000000" font-family="sans-serif" font-size="14" lengthAdjust="spacing" textLength="85" x="417.5" y="859.3452">flota_1:Flota</text><line style="stroke:#181818;stroke-width:0.5;" x1="364.5" x2="555.5" y1="867.2983" y2="867.2983"/><text fill="#000000" font-family="sans-serif" font-size="14" lengthAdjust="spacing" textLength="181" x="369.5" y="884.8334">nombre = "Flota Metro L1"</text></g><!--class bus_1:Vehiculo--><g id="elem_bus_1:Vehiculo"><rect codeLine="28" fill="#F1F1F1" height="67.4648" id="bus_1:Vehiculo" rx="2.5" ry="2.5" style="stroke:#181818;stroke-width:0.5;" width="160" x="264" y="696.35"/><text fill="#000000" font-family="sans-serif" font-size="14" lengthAdjust="spacing" textLength="104" x="292" y="714.8852">bus_1:Vehiculo</text><line style="stroke:#181818;stroke-width:0.5;" x1="265" x2="423" y1="722.8383" y2="722.8383"/><text fill="#000000" font-family="sans-serif" font-size="14" lengthAdjust="spacing" textLength="148" x="270" y="740.3734">matricula = "ABC123"</text><text fill="#000000" font-family="sans-serif" font-size="14" lengthAdjust="spacing" textLength="115" x="270" y="756.8617">capacidad = 150</text></g><!--class monitor_1:Sistema_de_Monitoreo--><g id="elem_monitor_1:Sistema_de_Monitoreo"><rect codeLine="32" fill="#F1F1F1" height="50.9766" id="monitor_1:Sistema_de_Monitoreo" rx="2.5" ry="2.5" style="stroke:#181818;stroke-width:0.5;" width="236" x="220" y="279.44"/><text fill="#000000" font-family="sans-serif" font-size="14" lengthAdjust="spacing" textLength="230" x="223" y="297.9752">monitor_1:Sistema_de_Monitoreo</text><line style="stroke:#181818;stroke-width:0.5;" x1="221" x2="455" y1="305.9283" y2="305.9283"/><text fill="#000000" font-family="sans-serif" font-size="14" lengthAdjust="spacing" textLength="117" x="226" y="323.4634">estado = "Activo"</text></g><!--class conductor_1:Conductor--><g id="elem_conductor_1:Conductor"><rect codeLine="35" fill="#F1F1F1" height="67.4648" id="conductor_1:Conductor" rx="2.5" ry="2.5" style="stroke:#181818;stroke-width:0.5;" width="169" x="1017.5" y="134.98"/><text fill="#000000" font-family="sans-serif" font-size="14" lengthAdjust="spacing" textLength="163" x="1020.5" y="153.5152">conductor_1:Conductor</text><line style="stroke:#181818;stroke-width:0.5;" x1="1018.5" x2="1185.5" y1="161.4683" y2="161.4683"/><text fill="#000000" font-family="sans-serif" font-size="14" lengthAdjust="spacing" textLength="155" x="1023.5" y="179.0034">nombre = "Juan P&#233;rez"</text><text fill="#000000" font-family="sans-serif" font-size="14" lengthAdjust="spacing" textLength="125" x="1023.5" y="195.4917">licencia = "12345"</text></g><!--class pasajero_1:Pasajero--><g id="elem_pasajero_1:Pasajero"><rect codeLine="39" fill="#F1F1F1" height="67.4648" id="pasajero_1:Pasajero" rx="2.5" ry="2.5" style="stroke:#181818;stroke-width:0.5;" width="180" x="7" y="551.88"/><text fill="#000000" font-family="sans-serif" font-size="14" lengthAdjust="spacing" textLength="137" x="28.5" y="570.4152">pasajero_1:Pasajero</text><line style="stroke:#181818;stroke-width:0.5;" x1="8" x2="186" y1="578.3683" y2="578.3683"/><text fill="#000000" font-family="sans-serif" font-size="14" lengthAdjust="spacing" textLength="168" x="13" y="595.9034">nombre = "Mar&#237;a Garc&#237;a"</text><text fill="#000000" font-family="sans-serif" font-size="14" lengthAdjust="spacing" textLength="77" x="13" y="612.3917">id = "P789"</text></g><!--class incidencia_1:Incidencia--><g id="elem_incidencia_1:Incidencia"><rect codeLine="43" fill="#F1F1F1" height="67.4648" id="incidencia_1:Incidencia" rx="2.5" ry="2.5" style="stroke:#181818;stroke-width:0.5;" width="166" x="125" y="407.42"/><text fill="#000000" font-family="sans-serif" font-size="14" lengthAdjust="spacing" textLength="158" x="129" y="425.9552">incidencia_1:Incidencia</text><line style="stroke:#181818;stroke-width:0.5;" x1="126" x2="290" y1="433.9083" y2="433.9083"/><text fill="#000000" font-family="sans-serif" font-size="14" lengthAdjust="spacing" textLength="108" x="131" y="451.4434">tipo = "Retraso"</text><text fill="#000000" font-family="sans-serif" font-size="14" lengthAdjust="spacing" textLength="154" x="131" y="467.9317">fecha = "2024-03-15"</text></g><!--class tarifa_1:Tarifa--><g id="elem_tarifa_1:Tarifa"><rect codeLine="47" fill="#F1F1F1" height="50.9766" id="tarifa_1:Tarifa" rx="2.5" ry="2.5" style="stroke:#181818;stroke-width:0.5;" width="124" x="35" y="704.59"/><text fill="#000000" font-family="sans-serif" font-size="14" lengthAdjust="spacing" textLength="96" x="49" y="723.1252">tarifa_1:Tarifa</text><line style="stroke:#181818;stroke-width:0.5;" x1="36" x2="158" y1="731.0783" y2="731.0783"/><text fill="#000000" font-family="sans-serif" font-size="14" lengthAdjust="spacing" textLength="112" x="41" y="748.6134">precio = "1.50&#8364;"</text></g><!--class abono_1:Abono--><g id="elem_abono_1:Abono"><rect codeLine="50" fill="#F1F1F1" height="50.9766" id="abono_1:Abono" rx="2.5" ry="2.5" style="stroke:#181818;stroke-width:0.5;" width="125" x="34.5" y="840.81"/><text fill="#000000" font-family="sans-serif" font-size="14" lengthAdjust="spacing" textLength="110" x="42" y="859.3452">abono_1:Abono</text><line style="stroke:#181818;stroke-width:0.5;" x1="35.5" x2="158.5" y1="867.2983" y2="867.2983"/><text fill="#000000" font-family="sans-serif" font-size="14" lengthAdjust="spacing" textLength="113" x="40.5" y="884.8334">tipo = "Mensual"</text></g><!--link Gobierno:Estado to servicio_1:Servicio--><g id="link_Gobierno:Estado_servicio_1:Servicio"><path codeLine="54" d="M509,58.42 C509,82.53 509,112.85 509,136.91 " fill="none" id="Gobierno:Estado-to-servicio_1:Servicio" style="stroke:#181818;stroke-width:1.0;"/><polygon fill="#181818" points="509,142.91,513,133.91,509,137.91,505,133.91,509,142.91" style="stroke:#181818;stroke-width:1.0;"/><text fill="#000000" font-family="sans-serif" font-size="13" lengthAdjust="spacing" textLength="39" x="510" y="101.5484">ofrece</text></g><!--link servicio_1:Servicio to ruta_101:Ruta--><g id="link_servicio_1:Servicio_ruta_101:Ruta"><path codeLine="55" d="M579.96,194.64 C648.46,218.71 745.9491,252.9714 814.4391,277.0314 " fill="none" id="servicio_1:Servicio-to-ruta_101:Ruta" style="stroke:#181818;stroke-width:1.0;"/><polygon fill="#181818" points="820.1,279.02,812.9344,272.2632,815.3826,277.3628,810.283,279.811,820.1,279.02" style="stroke:#181818;stroke-width:1.0;"/><text fill="#000000" font-family="sans-serif" font-size="13" lengthAdjust="spacing" textLength="39" x="735.21" y="246.0084">ofrece</text></g><!--link servicio_1:Servicio to flota_1:Flota--><g id="link_servicio_1:Servicio_flota_1:Flota"><path codeLine="56" d="M509,194.45 C509,221.38 509,265.71 509,303.93 C509,303.93 509,303.93 509,731.08 C509,771.27 492.2698,809.0818 477.8598,835.3018 " fill="none" id="servicio_1:Servicio-to-flota_1:Flota" style="stroke:#181818;stroke-width:1.0;"/><polygon fill="#181818" points="474.97,840.56,482.8102,834.5992,477.3782,836.1781,475.7992,830.7461,474.97,840.56" style="stroke:#181818;stroke-width:1.0;"/><text fill="#000000" font-family="sans-serif" font-size="13" lengthAdjust="spacing" textLength="54" x="510" y="518.4484">gestiona</text></g><!--link servicio_1:Servicio to monitor_1:Sistema_de_Monitoreo--><g id="link_servicio_1:Servicio_monitor_1:Sistema_de_Monitoreo"><path codeLine="57" d="M477.46,194.43 C462.73,205.98 444.97,219.91 429,232.44 C409.24,247.95 391.8089,261.6544 374.2989,275.4044 " fill="none" id="servicio_1:Servicio-to-monitor_1:Sistema_de_Monitoreo" style="stroke:#181818;stroke-width:1.0;"/><polygon fill="#181818" points="369.58,279.11,379.1288,276.6975,373.5124,276.022,374.188,270.4056,369.58,279.11" style="stroke:#181818;stroke-width:1.0;"/><text fill="#000000" font-family="sans-serif" font-size="13" lengthAdjust="spacing" textLength="52" x="430" y="246.0084">controla</text></g><!--link ruta_101:Ruta to horario_1:Horario--><g id="link_ruta_101:Ruta_horario_1:Horario"><path codeLine="59" d="M925.74,330.86 C955.63,352.32 994.1158,379.9411 1026.9358,403.5011 " fill="none" id="ruta_101:Ruta-to-horario_1:Horario" style="stroke:#181818;stroke-width:1.0;"/><polygon fill="#181818" points="1031.81,407,1026.8314,398.5022,1027.7482,404.0842,1022.1661,405.001,1031.81,407" style="stroke:#181818;stroke-width:1.0;"/><text fill="#000000" font-family="sans-serif" font-size="13" lengthAdjust="spacing" textLength="77" x="991.11" y="373.9884">opera seg&#250;n</text></g><!--reverse link ruta_101:Ruta to parada_1:Parada--><g id="link_ruta_101:Ruta_parada_1:Parada"><path codeLine="60" d="M838.7028,336.9883 C798.1128,361.0983 747.27,391.29 706.75,415.35 " fill="none" id="ruta_101:Ruta-backto-parada_1:Parada" style="stroke:#181818;stroke-width:1.0;"/><polygon fill="#181818" points="849.02,330.86,841.8187,330.4851,838.7028,336.9883,845.9042,337.3632,849.02,330.86" style="stroke:#181818;stroke-width:1.0;"/><text fill="#000000" font-family="sans-serif" font-size="13" lengthAdjust="spacing" textLength="45" x="799.24" y="373.9884">incluye</text></g><!--reverse link ruta_101:Ruta to parada_2:Parada--><g id="link_ruta_101:Ruta_parada_2:Parada"><path codeLine="61" d="M891,342.86 C891,366.97 891,391.29 891,415.35 " fill="none" id="ruta_101:Ruta-backto-parada_2:Parada" style="stroke:#181818;stroke-width:1.0;"/><polygon fill="#181818" points="891,330.86,887,336.86,891,342.86,895,336.86,891,330.86" style="stroke:#181818;stroke-width:1.0;"/><text fill="#000000" font-family="sans-serif" font-size="13" lengthAdjust="spacing" textLength="45" x="892" y="373.9884">incluye</text></g><!--link bus_1:Vehiculo to flota_1:Flota--><g id="link_bus_1:Vehiculo_flota_1:Flota"><path codeLine="63" d="M370.07,764.09 C381.75,778.61 395.84,795.75 409,810.81 C417.61,820.67 419.1358,822.5008 427.7858,831.6708 " fill="none" id="bus_1:Vehiculo-to-flota_1:Flota" style="stroke:#181818;stroke-width:1.0;"/><polygon fill="#181818" points="436.02,840.4,434.8126,833.2907,427.7858,831.6708,428.9932,838.7801,436.02,840.4" style="stroke:#181818;stroke-width:1.0;"/><text fill="#000000" font-family="sans-serif" font-size="13" lengthAdjust="spacing" textLength="72" x="410" y="807.3784">pertenece a</text></g><!--link bus_1:Vehiculo to incidencia_1:Incidencia--><g id="link_bus_1:Vehiculo_incidencia_1:Incidencia"><path codeLine="64" d="M324.78,695.9 C312.57,674.35 296.73,645.51 284,619.35 C259.98,569.98 237.7906,516.7159 223.3306,480.7959 " fill="none" id="bus_1:Vehiculo-to-incidencia_1:Incidencia" style="stroke:#181818;stroke-width:1.0;"/><polygon fill="#181818" points="221.09,475.23,220.7403,485.0726,222.9572,479.8683,228.1616,482.0851,221.09,475.23" style="stroke:#181818;stroke-width:1.0;"/><text fill="#000000" font-family="sans-serif" font-size="13" lengthAdjust="spacing" textLength="32" x="285" y="590.6884">sufre</text></g><!--link bus_1:Vehiculo to monitor_1:Sistema_de_Monitoreo--><g id="link_bus_1:Vehiculo_monitor_1:Sistema_de_Monitoreo"><path codeLine="65" d="M343.52,696.07 C342.92,655.18 341.87,583.4 341,521.88 C340.02,452.71 338.9721,377.0794 338.4221,336.8694 " fill="none" id="bus_1:Vehiculo-to-monitor_1:Sistema_de_Monitoreo" style="stroke:#181818;stroke-width:1.0;"/><polygon fill="#181818" points="338.34,330.87,334.4635,339.9239,338.4084,335.8695,342.4627,339.8145,338.34,330.87" style="stroke:#181818;stroke-width:1.0;"/><text fill="#000000" font-family="sans-serif" font-size="13" lengthAdjust="spacing" textLength="123" x="342" y="518.4484">es monitoreado por</text></g><!--link monitor_1:Sistema_de_Monitoreo to incidencia_1:Incidencia--><g id="link_monitor_1:Sistema_de_Monitoreo_incidencia_1:Incidencia"><path codeLine="67" d="M302.3,330.83 C290.8,339.58 278.37,349.88 268,360.42 C254.03,374.62 243.9742,387.2581 233.3142,402.2681 " fill="none" id="monitor_1:Sistema_de_Monitoreo-to-incidencia_1:Incidencia" style="stroke:#181818;stroke-width:1.0;"/><polygon fill="#181818" points="229.84,407.16,238.3125,402.1383,232.7351,403.0835,231.79,397.5061,229.84,407.16" style="stroke:#181818;stroke-width:1.0;"/><text fill="#000000" font-family="sans-serif" font-size="13" lengthAdjust="spacing" textLength="48" x="269" y="373.9884">registra</text></g><!--link conductor_1:Conductor to ruta_101:Ruta--><g id="link_conductor_1:Conductor_ruta_101:Ruta"><path codeLine="69" d="M1049.84,202.89 C1012.74,226.49 968.7618,254.4586 935.0418,275.9186 " fill="none" id="conductor_1:Conductor-to-ruta_101:Ruta" style="stroke:#181818;stroke-width:1.0;"/><polygon fill="#181818" points="929.98,279.14,939.7204,277.6824,934.1982,276.4555,935.4251,270.9333,929.98,279.14" style="stroke:#181818;stroke-width:1.0;"/><text fill="#000000" font-family="sans-serif" font-size="13" lengthAdjust="spacing" textLength="34" x="1003.83" y="246.0084">sigue</text></g><!--link conductor_1:Conductor to bus_1:Vehiculo--><g id="link_conductor_1:Conductor_bus_1:Vehiculo"><path codeLine="70" d="M1151.66,202.9 C1181.21,226.98 1213,262.5 1213,303.93 C1213,303.93 1213,303.93 1213,586.62 C1213,666.11 645.3076,710.0948 430.1876,723.9348 " fill="none" id="conductor_1:Conductor-to-bus_1:Vehiculo" style="stroke:#181818;stroke-width:1.0;"/><polygon fill="#181818" points="424.2,724.32,433.4382,727.7339,429.1897,723.999,432.9246,719.7504,424.2,724.32" style="stroke:#181818;stroke-width:1.0;"/><text fill="#000000" font-family="sans-serif" font-size="13" lengthAdjust="spacing" textLength="53" x="1214" y="446.2184">conduce</text></g><!--link pasajero_1:Pasajero to bus_1:Vehiculo--><g id="link_pasajero_1:Pasajero_bus_1:Vehiculo"><path codeLine="72" d="M130.26,619.75 C147.14,635.32 168.58,653.28 190,666.35 C212.8,680.26 233.6544,690.0835 258.1044,699.8035 " fill="none" id="pasajero_1:Pasajero-to-bus_1:Vehiculo" style="stroke:#181818;stroke-width:1.0;"/><polygon fill="#181818" points="263.68,702.02,256.7943,694.9781,259.0337,700.1729,253.839,702.4122,263.68,702.02" style="stroke:#181818;stroke-width:1.0;"/><text fill="#000000" font-family="sans-serif" font-size="13" lengthAdjust="spacing" textLength="39" x="191" y="662.9184">utiliza</text></g><!--link pasajero_1:Pasajero to tarifa_1:Tarifa--><g id="link_pasajero_1:Pasajero_tarifa_1:Tarifa"><path codeLine="73" d="M97,619.66 C97,645.47 97,674.78 97,698.22 " fill="none" id="pasajero_1:Pasajero-to-tarifa_1:Tarifa" style="stroke:#181818;stroke-width:1.0;"/><polygon fill="#181818" points="97,704.22,101,695.22,97,699.22,93,695.22,97,704.22" style="stroke:#181818;stroke-width:1.0;"/><text fill="#000000" font-family="sans-serif" font-size="13" lengthAdjust="spacing" textLength="30" x="98" y="662.9184">paga</text></g><!--link incidencia_1:Incidencia to pasajero_1:Pasajero--><g id="link_incidencia_1:Incidencia_pasajero_1:Pasajero"><path codeLine="75" d="M182.26,475.19 C164.32,498.21 144.1981,524.0473 126.2981,547.0173 " fill="none" id="incidencia_1:Incidencia-to-pasajero_1:Pasajero" style="stroke:#181818;stroke-width:1.0;stroke-dasharray:7.0,7.0;"/><polygon fill="#181818" points="122.61,551.75,131.2972,547.1097,125.6834,547.8061,124.987,542.1923,122.61,551.75" style="stroke:#181818;stroke-width:1.0;"/><text fill="#000000" font-family="sans-serif" font-size="13" lengthAdjust="spacing" textLength="38" x="156.83" y="518.4484">afecta</text></g><!--link tarifa_1:Tarifa to abono_1:Abono--><g id="link_tarifa_1:Tarifa_abono_1:Abono"><path codeLine="77" d="M97,756.01 C97,780.12 97,810.44 97,834.5 " fill="none" id="tarifa_1:Tarifa-to-abono_1:Abono" style="stroke:#181818;stroke-width:1.0;"/><polygon fill="#181818" points="97,840.5,101,831.5,97,835.5,93,831.5,97,840.5" style="stroke:#181818;stroke-width:1.0;"/><text fill="#000000" font-family="sans-serif" font-size="13" lengthAdjust="spacing" textLength="75" x="98" y="807.3784">se paga con</text></g><!--SRC=[ZLJDQXin4BxxAOIFWGsxTapRXHgIaAOjCPYaz6h6sh6jiYijaZQGb5xwDeNcK7hhrM_I9-b8wzXhMvkj3zQifE-RRtuqZ36s4XaoBZJFiSUUlx4exGChi9YZDZs_ptCmXlMlrLoWbYgzCXOorMTV_QdxbI0CUylwLwQ4zI_e-uDl_h_9O53V2oxKB4dlDcQJHQfYhj7ntAoV909Bs0IjLasw3PEkBCoIE4bloGXpdETGO0RH7KXsGRf1Po6cbTAWlQJtjTLa4z9fT6pnA1t6_Ut1GaYtEnXkT_T8Iz2GaS1qwesmG9T6BjQ_9Rj4QJNaxKI35ubSXESvrSk60bpaokKgVUVMC84_gdFDRf80nxmonF0PLu9N-Lw62h3QRO9F-SLbCXZkiiIXf0WpoEWm6SN7l8MImYhj-a4OYmNCCfnDwatSyuE-vxmJRiLzA52kP5RnckxosGu7_B6Yb4tNFpG-xjJcWgFamaT2OPoDWlKmy0MrygMjpR272UZr4x1hq9pMdHFXSj6Vldhz9i0ko7tcDH3_X-r7quCLfS_2BHKBZ6fq9FALbpw81sTHF8oIa7vB7Rvmx9-yiVU6DMvwFJaTnN-__mp0OQwaY_tShI5P4vIcsdMoNuu7HnIDMuP1ojI2TDJpA7p5Wm_U___23jv2ofRKLq99w09sDMhAgFle-UIm6tg78ZrHODoG-18rC8FBzHyPX9v4KM2ef3IVU5uzO2Tcq8AfWOUlEufE0gaYZHOb9Pb16spyGWkdp5HKenUWtJb6mpQNq0s3Kkb655tmBdaQbuJJpGAsJ9Hm1ngnhB0RTnYwxnowqIn8SCgqe2ihSl48NS2ZXqy5XMKpsDRKd9wEMvXJ1ZHsR9Fbo8_tVZ0tA5detRlOU_y0]--></g></svg>