<?xml version="1.0" encoding="us-ascii" standalone="no"?><svg xmlns="http://www.w3.org/2000/svg" xmlns:xlink="http://www.w3.org/1999/xlink" contentStyleType="text/css" height="524px" preserveAspectRatio="none" style="width:485px;height:524px;background:#FFFFFF;" version="1.1" viewBox="0 0 485 524" width="485px" zoomAndPan="magnify"><defs/><g><ellipse cx="215" cy="16" fill="#222222" rx="10" ry="10" style="stroke:#222222;stroke-width:1.0;"/><g id="Inactivo"><rect fill="#F1F1F1" height="50" rx="12.5" ry="12.5" style="stroke:#181818;stroke-width:0.5;" width="73" x="178.5" y="87"/><line style="stroke:#181818;stroke-width:0.5;" x1="178.5" x2="251.5" y1="113.4883" y2="113.4883"/><text fill="#000000" font-family="sans-serif" font-size="14" lengthAdjust="spacing" textLength="53" x="188.5" y="105.5352">Inactivo</text></g><g id="EnServicio"><rect fill="#F1F1F1" height="50" rx="12.5" ry="12.5" style="stroke:#181818;stroke-width:0.5;" width="90" x="7" y="214"/><line style="stroke:#181818;stroke-width:0.5;" x1="7" x2="97" y1="240.4883" y2="240.4883"/><text fill="#000000" font-family="sans-serif" font-size="14" lengthAdjust="spacing" textLength="70" x="17" y="232.5352">EnServicio</text></g><g id="EnRuta"><rect fill="#F1F1F1" height="50" rx="12.5" ry="12.5" style="stroke:#181818;stroke-width:0.5;" width="68" x="162" y="341"/><line style="stroke:#181818;stroke-width:0.5;" x1="162" x2="230" y1="367.4883" y2="367.4883"/><text fill="#000000" font-family="sans-serif" font-size="14" lengthAdjust="spacing" textLength="48" x="172" y="359.5352">EnRuta</text></g><g id="Parada"><rect fill="#F1F1F1" height="50" rx="12.5" ry="12.5" style="stroke:#181818;stroke-width:0.5;" width="67" x="218.5" y="468"/><line style="stroke:#181818;stroke-width:0.5;" x1="218.5" x2="285.5" y1="494.4883" y2="494.4883"/><text fill="#000000" font-family="sans-serif" font-size="14" lengthAdjust="spacing" textLength="47" x="228.5" y="486.5352">Parada</text></g><!--link *start* to Inactivo--><g id="link_*start*_Inactivo"><path d="M215,26.36 C215,40.29 215,60.95 215,80.65 " fill="none" id="*start*-to-Inactivo" style="stroke:#181818;stroke-width:1.0;"/><polygon fill="#181818" points="215,86.65,219,77.65,215,81.65,211,77.65,215,86.65" style="stroke:#181818;stroke-width:1.0;"/></g><!--link Inactivo to EnServicio--><g id="link_Inactivo_EnServicio"><path d="M178.17,120.58 C149.67,128.11 110.84,142.21 85,167 C71.86,179.61 65.3274,192.7779 60.2874,207.8979 " fill="none" id="Inactivo-to-EnServicio" style="stroke:#181818;stroke-width:1.0;"/><polygon fill="#181818" points="58.39,213.59,65.0308,206.3168,59.9711,208.8466,57.4413,203.7869,58.39,213.59" style="stroke:#181818;stroke-width:1.0;"/><text fill="#000000" font-family="sans-serif" font-size="13" lengthAdjust="spacing" textLength="102" x="86" y="180.5684">Inicia el servicio</text></g><!--link EnServicio to EnRuta--><g id="link_EnServicio_EnRuta"><path d="M37.53,264.3 C30.83,279 26.27,297.45 36,311 C64.55,350.77 117.9558,361.1951 155.7958,363.9451 " fill="none" id="EnServicio-to-EnRuta" style="stroke:#181818;stroke-width:1.0;"/><polygon fill="#181818" points="161.78,364.38,153.0936,359.7382,156.7932,364.0176,152.5137,367.7171,161.78,364.38" style="stroke:#181818;stroke-width:1.0;"/><text fill="#000000" font-family="sans-serif" font-size="13" lengthAdjust="spacing" textLength="151" x="37" y="307.5684">Asigna ruta a conductor</text></g><!--link EnRuta to Parada--><g id="link_EnRuta_Parada"><path d="M179.42,391.2 C171.92,405.34 166.27,423.25 174,438 C183.4,455.94 196.4877,466.2832 213.0377,475.1232 " fill="none" id="EnRuta-to-Parada" style="stroke:#181818;stroke-width:1.0;"/><polygon fill="#181818" points="218.33,477.95,212.276,470.1815,213.9197,475.5943,208.5069,477.238,218.33,477.95" style="stroke:#181818;stroke-width:1.0;"/><text fill="#000000" font-family="sans-serif" font-size="13" lengthAdjust="spacing" textLength="33" x="175" y="434.5684">Llega</text></g><!--link Parada to EnRuta--><g id="link_Parada_EnRuta"><path d="M241.1,467.66 C231.24,445.66 219.2541,418.8952 209.3841,396.8752 " fill="none" id="Parada-to-EnRuta" style="stroke:#181818;stroke-width:1.0;"/><polygon fill="#181818" points="206.93,391.4,206.9611,401.2488,208.9751,395.9626,214.2613,397.9766,206.93,391.4" style="stroke:#181818;stroke-width:1.0;"/><text fill="#000000" font-family="sans-serif" font-size="13" lengthAdjust="spacing" textLength="112" x="228.35" y="434.5684">Si hay otra parada</text></g><!--link Parada to Inactivo--><g id="link_Parada_Inactivo"><path d="M285.76,482.94 C307.99,475.03 335.42,461.1 349,438 C399.53,352.03 381.07,302.96 336,214 C317.76,178 285.4951,153.0698 257.0751,135.7698 " fill="none" id="Parada-to-Inactivo" style="stroke:#181818;stroke-width:1.0;"/><polygon fill="#181818" points="251.95,132.65,257.5578,140.7464,256.2209,135.2498,261.7175,133.9129,251.95,132.65" style="stroke:#181818;stroke-width:1.0;"/><text fill="#000000" font-family="sans-serif" font-size="13" lengthAdjust="spacing" textLength="101" x="376.36" y="307.5684">Si &#250;ltima parada</text></g><!--link EnRuta to Inactivo--><g id="link_EnRuta_Inactivo"><path d="M197.84,340.54 C201.48,292.25 209.1092,191.193 212.7292,143.143 " fill="none" id="EnRuta-to-Inactivo" style="stroke:#181818;stroke-width:1.0;"/><polygon fill="#181818" points="213.18,137.16,208.5152,145.8341,212.8044,142.1459,216.4926,146.4351,213.18,137.16" style="stroke:#181818;stroke-width:1.0;"/><text fill="#000000" font-family="sans-serif" font-size="13" lengthAdjust="spacing" textLength="119" x="208.08" y="244.0684">Hay una incidencia</text></g><!--SRC=[LSwz2W8n303WFK-HMRWNS10S10K7yKPn26qv0xMLNdlWgxdUYrrQwr6Na9-F9BVD7RjkXoT7AlBa0NvPQHzSRyB4YZrknKX2Q2oEjGdD_CklAPBG_SY38mov8bJUwQIY3r11jXSAfBCzMpCGrF9lIy_ue3Vw60XVPTwozT42vu-D_5nTSwXnHzcMv2zsYhMHGB00]--></g></svg>