<?xml version="1.0" encoding="us-ascii" standalone="no"?><svg xmlns="http://www.w3.org/2000/svg" xmlns:xlink="http://www.w3.org/1999/xlink" contentStyleType="text/css" height="872px" preserveAspectRatio="none" style="width:879px;height:872px;background:#FFFFFF;" version="1.1" viewBox="0 0 879 872" width="879px" zoomAndPan="magnify"><defs/><g><path d="M19.5,7 L853.17,7 A12.5,12.5 0 0 1 865.67,19.5 L865.67,33.4883 L7,33.4883 L7,19.5 A12.5,12.5 0 0 1 19.5,7 " fill="#F1F1F1" style="stroke:#F1F1F1;stroke-width:1.0;"/><rect fill="none" height="859.7066" rx="12.5" ry="12.5" style="stroke:#181818;stroke-width:0.5;" width="858.67" x="7" y="7"/><line style="stroke:#181818;stroke-width:0.5;" x1="7" x2="865.67" y1="33.4883" y2="33.4883"/><text fill="#000000" font-family="sans-serif" font-size="14" lengthAdjust="spacing" textLength="154" x="359.335" y="25.5352">Sistema de Transporte</text><path d="M40.25,45.4883 L776.53,45.4883 A12.5,12.5 0 0 1 789.03,57.9883 L789.03,71.9766 L27.75,71.9766 L27.75,57.9883 A12.5,12.5 0 0 1 40.25,45.4883 " fill="#F1F1F1" style="stroke:#F1F1F1;stroke-width:1.0;"/><rect fill="none" height="397.7283" rx="12.5" ry="12.5" style="stroke:#181818;stroke-width:0.5;" width="761.28" x="27.75" y="45.4883"/><line style="stroke:#181818;stroke-width:0.5;" x1="27.75" x2="789.03" y1="71.9766" y2="71.9766"/><text fill="#000000" font-family="sans-serif" font-size="14" lengthAdjust="spacing" textLength="53" x="381.89" y="64.0234">Servicio</text><ellipse cx="315.03" cy="92.9766" fill="#222222" rx="10" ry="10" style="stroke:#222222;stroke-width:1.0;"/><g id="Sistema.Servicio.Activo"><rect fill="#F1F1F1" height="50" rx="12.5" ry="12.5" style="stroke:#181818;stroke-width:0.5;" width="62" x="284.03" y="166.5966"/><line style="stroke:#181818;stroke-width:0.5;" x1="284.03" x2="346.03" y1="193.0848" y2="193.0848"/><text fill="#000000" font-family="sans-serif" font-size="14" lengthAdjust="spacing" textLength="42" x="294.03" y="185.1317">Activo</text></g><g id="Sistema.Servicio.Suspendido"><rect fill="#F1F1F1" height="50" rx="12.5" ry="12.5" style="stroke:#181818;stroke-width:0.5;" width="101" x="264.53" y="280.2166"/><line style="stroke:#181818;stroke-width:0.5;" x1="264.53" x2="365.53" y1="306.7048" y2="306.7048"/><text fill="#000000" font-family="sans-serif" font-size="14" lengthAdjust="spacing" textLength="81" x="274.53" y="298.7517">Suspendido</text></g><g id="Sistema.Servicio.EnMantenimiento"><rect fill="#F1F1F1" height="50" rx="12.5" ry="12.5" style="stroke:#181818;stroke-width:0.5;" width="140" x="221.03" y="383.2166"/><line style="stroke:#181818;stroke-width:0.5;" x1="221.03" x2="361.03" y1="409.7048" y2="409.7048"/><text fill="#000000" font-family="sans-serif" font-size="14" lengthAdjust="spacing" textLength="120" x="231.03" y="401.7517">EnMantenimiento</text></g><g id="Sistema.Servicio.Cerrado"><rect fill="#F1F1F1" height="50" rx="12.5" ry="12.5" style="stroke:#181818;stroke-width:0.5;" width="76" x="606.03" y="280.2166"/><line style="stroke:#181818;stroke-width:0.5;" x1="606.03" x2="682.03" y1="306.7048" y2="306.7048"/><text fill="#000000" font-family="sans-serif" font-size="14" lengthAdjust="spacing" textLength="56" x="616.03" y="298.7517">Cerrado</text></g><ellipse cx="644.03" cy="408.2166" fill="none" rx="11" ry="11" style="stroke:#222222;stroke-width:1.0;"/><ellipse cx="644.03" cy="408.2166" fill="#222222" rx="6" ry="6" style="stroke:#222222;stroke-width:1.0;"/><g id="elem_GMN18"><path d="M363.53,155.9766 L363.53,187.5966 L346.49,191.5966 L363.53,195.5966 L363.53,227.2188 A0,0 0 0 0 363.53,227.2188 L570.53,227.2188 A0,0 0 0 0 570.53,227.2188 L570.53,165.9766 L560.53,155.9766 L363.53,155.9766 A0,0 0 0 0 363.53,155.9766 " fill="#FEFFDD" style="stroke:#181818;stroke-width:0.5;"/><path d="M560.53,155.9766 L560.53,165.9766 L570.53,165.9766 L560.53,155.9766 " fill="#FEFFDD" style="stroke:#181818;stroke-width:0.5;"/><text fill="#000000" font-family="sans-serif" font-size="13" lengthAdjust="spacing" textLength="186" x="369.53" y="173.5449">Estado principal de operaci&#243;n</text><text fill="#000000" font-family="sans-serif" font-size="13" lengthAdjust="spacing" textLength="136" x="369.53" y="188.8555">- Monitoreo continuo</text><text fill="#000000" font-family="sans-serif" font-size="13" lengthAdjust="spacing" textLength="154" x="369.53" y="204.166">- Gesti&#243;n de incidencias</text><text fill="#000000" font-family="sans-serif" font-size="13" lengthAdjust="spacing" textLength="111" x="369.53" y="219.4766">- Control de flota</text></g><!--link *start*Servicio to Activo--><g id="link_*start*Servicio_Activo"><path d="M315.03,103.2366 C315.03,117.5966 315.03,139.7066 315.03,160.1666 " fill="none" id="*start*Servicio-to-Activo" style="stroke:#181818;stroke-width:1.0;"/><polygon fill="#181818" points="315.03,166.1666,319.03,157.1666,315.03,161.1666,311.03,157.1666,315.03,166.1666" style="stroke:#181818;stroke-width:1.0;"/><text fill="#000000" font-family="sans-serif" font-size="13" lengthAdjust="spacing" textLength="86" x="316.03" y="134.5449">Crear Servicio</text></g><!--link Activo to Suspendido--><g id="link_Activo_Suspendido"><path d="M315.03,217.0866 C315.03,235.7066 315.03,255.1766 315.03,273.7766 " fill="none" id="Activo-to-Suspendido" style="stroke:#181818;stroke-width:1.0;"/><polygon fill="#181818" points="315.03,279.7766,319.03,270.7766,315.03,274.7766,311.03,270.7766,315.03,279.7766" style="stroke:#181818;stroke-width:1.0;"/><text fill="#000000" font-family="sans-serif" font-size="13" lengthAdjust="spacing" textLength="103" x="316.03" y="258.7849">Incidencia Grave</text></g><!--link Suspendido to EnMantenimiento--><g id="link_Suspendido_EnMantenimiento"><path d="M299.07,330.6966 C296.19,336.2566 293.6,342.2666 292.03,348.2166 C289.09,359.3066 288.3628,365.9889 288.6628,376.7489 " fill="none" id="Suspendido-to-EnMantenimiento" style="stroke:#181818;stroke-width:1.0;"/><polygon fill="#181818" points="288.83,382.7466,292.5776,373.6386,288.6906,377.7485,284.5807,373.8615,288.83,382.7466" style="stroke:#181818;stroke-width:1.0;"/><text fill="#000000" font-family="sans-serif" font-size="13" lengthAdjust="spacing" textLength="127" x="293.03" y="361.7849">Requiere Reparaci&#243;n</text></g><!--link Suspendido to Activo--><g id="link_Suspendido_Activo"><path d="M264.36,285.2666 C259.52,283.5366 254.69,281.8266 250.03,280.2166 C225.31,271.6866 209.43,283.3466 194.03,262.2166 C168.11,226.6666 233.885,207.7058 277.775,198.9858 " fill="none" id="Suspendido-to-Activo" style="stroke:#181818;stroke-width:1.0;"/><polygon fill="#181818" points="283.66,197.8166,274.0531,195.6471,278.7559,198.7909,275.612,203.4937,283.66,197.8166" style="stroke:#181818;stroke-width:1.0;"/><text fill="#000000" font-family="sans-serif" font-size="13" lengthAdjust="spacing" textLength="115" x="195.03" y="258.7849">Resoluci&#243;n R&#225;pida</text></g><!--link Activo to EnMantenimiento--><g id="link_Activo_EnMantenimiento"><path d="M283.56,193.6566 C231.01,197.3266 126.59,213.1566 80.03,280.2166 C38.75,339.6566 138.4372,374.652 214.6972,392.462 " fill="none" id="Activo-to-EnMantenimiento" style="stroke:#181818;stroke-width:1.0;"/><polygon fill="#181818" points="220.54,393.8266,212.6855,387.8846,215.671,392.6894,210.8661,395.6749,220.54,393.8266" style="stroke:#181818;stroke-width:1.0;"/><text fill="#000000" font-family="sans-serif" font-size="13" lengthAdjust="spacing" textLength="173" x="81.03" y="310.2849">Mantenimiento Programado</text></g><!--link EnMantenimiento to Activo--><g id="link_EnMantenimiento_Activo"><path d="M361.47,400.7966 C384.18,394.9966 407.07,384.3966 421.03,365.2166 C436.72,343.6566 437.21,266.4066 421.03,245.2166 C402.57,221.0566 381.86,241.5266 355.03,227.2166 C349.68,224.3666 349.1058,224.4465 344.2558,220.5465 " fill="none" id="EnMantenimiento-to-Activo" style="stroke:#181818;stroke-width:1.0;"/><polygon fill="#181818" points="339.58,216.7866,344.0871,225.5436,343.4765,219.9198,349.1003,219.3092,339.58,216.7866" style="stroke:#181818;stroke-width:1.0;"/><text fill="#000000" font-family="sans-serif" font-size="13" lengthAdjust="spacing" textLength="151" x="433.98" y="310.2849">Finalizar Mantenimiento</text></g><!--link Activo to Cerrado--><g id="link_Activo_Cerrado"><path d="M338.97,216.7766 C343.95,220.7766 349.41,224.4966 355.03,227.2166 C393.3,245.7666 407.46,236.1566 449.03,245.2166 C512.96,259.1566 530.26,258.6266 592.03,280.2166 C596.53,281.7866 595.6527,281.2823 600.2227,283.2123 " fill="none" id="Activo-to-Cerrado" style="stroke:#181818;stroke-width:1.0;"/><polygon fill="#181818" points="605.75,285.5466,599.0152,278.3603,601.1439,283.6013,595.9029,285.73,605.75,285.5466" style="stroke:#181818;stroke-width:1.0;"/><text fill="#000000" font-family="sans-serif" font-size="13" lengthAdjust="spacing" textLength="168" x="531.98" y="258.7849">Fin de Temporada/Servicio</text></g><!--link Cerrado to *end*Servicio--><g id="link_Cerrado_*end*Servicio"><path d="M644.03,330.6666 C644.03,351.7966 644.03,375.3166 644.03,390.7966 " fill="none" id="Cerrado-to-*end*Servicio" style="stroke:#181818;stroke-width:1.0;"/><polygon fill="#181818" points="644.03,396.7966,648.03,387.7966,644.03,391.7966,640.03,387.7966,644.03,396.7966" style="stroke:#181818;stroke-width:1.0;"/><text fill="#000000" font-family="sans-serif" font-size="13" lengthAdjust="spacing" textLength="134" x="645.03" y="361.7849">Discontinuar Servicio</text></g><path d="M31.5,496.2183 L357.27,496.2183 A12.5,12.5 0 0 1 369.77,508.7183 L369.77,522.7066 L19,522.7066 L19,508.7183 A12.5,12.5 0 0 1 31.5,496.2183 " fill="#F1F1F1" style="stroke:#F1F1F1;stroke-width:1.0;"/><rect fill="none" height="360.4883" rx="12.5" ry="12.5" style="stroke:#181818;stroke-width:0.5;" width="350.77" x="19" y="496.2183"/><line style="stroke:#181818;stroke-width:0.5;" x1="19" x2="369.77" y1="522.7066" y2="522.7066"/><text fill="#000000" font-family="sans-serif" font-size="14" lengthAdjust="spacing" textLength="111" x="138.885" y="514.7534">Control de Flota</text><ellipse cx="142.83" cy="543.7066" fill="#222222" rx="10" ry="10" style="stroke:#222222;stroke-width:1.0;"/><g id="Sistema.Flota.DisponibleTotal"><rect fill="#F1F1F1" height="50" rx="12.5" ry="12.5" style="stroke:#181818;stroke-width:0.5;" width="128" x="78.83" y="590.7066"/><line style="stroke:#181818;stroke-width:0.5;" x1="78.83" x2="206.83" y1="617.1948" y2="617.1948"/><text fill="#000000" font-family="sans-serif" font-size="14" lengthAdjust="spacing" textLength="108" x="88.83" y="609.2417">DisponibleTotal</text></g><g id="Sistema.Flota.DisponibleParcial"><rect fill="#F1F1F1" height="50" rx="12.5" ry="12.5" style="stroke:#181818;stroke-width:0.5;" width="138" x="73.83" y="693.7066"/><line style="stroke:#181818;stroke-width:0.5;" x1="73.83" x2="211.83" y1="720.1948" y2="720.1948"/><text fill="#000000" font-family="sans-serif" font-size="14" lengthAdjust="spacing" textLength="118" x="83.83" y="712.2417">DisponibleParcial</text></g><g id="Sistema.Flota.FlotaCr&#237;tica"><rect fill="#F1F1F1" height="50" rx="12.5" ry="12.5" style="stroke:#181818;stroke-width:0.5;" width="98" x="93.83" y="796.7066"/><line style="stroke:#181818;stroke-width:0.5;" x1="93.83" x2="191.83" y1="823.1948" y2="823.1948"/><text fill="#000000" font-family="sans-serif" font-size="14" lengthAdjust="spacing" textLength="78" x="103.83" y="815.2417">FlotaCr&#237;tica</text></g><!--link *start*Flota to DisponibleTotal--><g id="link_*start*Flota_DisponibleTotal"><path d="M142.83,554.1466 C142.83,563.4066 142.83,571.8966 142.83,584.3866 " fill="none" id="*start*Flota-to-DisponibleTotal" style="stroke:#181818;stroke-width:1.0;"/><polygon fill="#181818" points="142.83,590.3866,146.83,581.3866,142.83,585.3866,138.83,581.3866,142.83,590.3866" style="stroke:#181818;stroke-width:1.0;"/></g><!--link DisponibleTotal to DisponibleParcial--><g id="link_DisponibleTotal_DisponibleParcial"><path d="M78.37,630.9466 C64.39,637.1366 51.28,646.0066 42.83,658.7066 C30,678.0166 43.2742,689.7378 67.9642,699.1578 " fill="none" id="DisponibleTotal-to-DisponibleParcial" style="stroke:#181818;stroke-width:1.0;"/><polygon fill="#181818" points="73.57,701.2966,66.5871,694.3511,68.8985,699.5142,63.7354,701.8256,73.57,701.2966" style="stroke:#181818;stroke-width:1.0;"/><text fill="#000000" font-family="sans-serif" font-size="13" lengthAdjust="spacing" textLength="178" x="43.83" y="672.2749">Veh&#237;culos en Mantenimiento</text></g><!--link DisponibleParcial to DisponibleTotal--><g id="link_DisponibleParcial_DisponibleTotal"><path d="M208.48,693.4066 C222.67,684.2366 231.23,672.5866 222.83,658.7066 C218.7,651.8566 217.8067,649.7074 211.3867,644.8274 " fill="none" id="DisponibleParcial-to-DisponibleTotal" style="stroke:#181818;stroke-width:1.0;"/><polygon fill="#181818" points="206.61,641.1966,211.3544,649.8273,210.5906,644.2223,216.1956,643.4584,206.61,641.1966" style="stroke:#181818;stroke-width:1.0;"/><text fill="#000000" font-family="sans-serif" font-size="13" lengthAdjust="spacing" textLength="104" x="227.15" y="672.2749">Flota Restaurada</text></g><!--link DisponibleParcial to FlotaCr?tica--><g id="link_DisponibleParcial_FlotaCr&#237;tica"><path d="M92.7,744.1966 C86.75,749.1666 81.5,754.9766 77.83,761.7066 C70.18,775.7566 74.8299,784.7682 88.7699,794.5582 " fill="none" id="DisponibleParcial-to-FlotaCr&#237;tica" style="stroke:#181818;stroke-width:1.0;"/><polygon fill="#181818" points="93.68,798.0066,88.6138,789.5607,89.5883,795.133,84.016,796.1075,93.68,798.0066" style="stroke:#181818;stroke-width:1.0;"/><text fill="#000000" font-family="sans-serif" font-size="13" lengthAdjust="spacing" textLength="108" x="78.83" y="775.2749">M&#250;ltiples Aver&#237;as</text></g><!--link FlotaCr?tica to DisponibleParcial--><g id="link_FlotaCr&#237;tica_DisponibleParcial"><path d="M176.96,796.2866 C186.62,786.2666 193.22,774.1166 187.83,761.7066 C185.02,755.2366 184.7725,753.6948 179.8625,748.4548 " fill="none" id="FlotaCr&#237;tica-to-DisponibleParcial" style="stroke:#181818;stroke-width:1.0;"/><polygon fill="#181818" points="175.76,744.0766,178.995,753.379,179.1788,747.7251,184.8326,747.9089,175.76,744.0766" style="stroke:#181818;stroke-width:1.0;"/><text fill="#000000" font-family="sans-serif" font-size="13" lengthAdjust="spacing" textLength="169" x="190.77" y="775.2749">Reparaciones Completadas</text></g><path d="M400.59,547.7183 L844.17,547.7183 A12.5,12.5 0 0 1 856.67,560.2183 L856.67,574.2066 L388.09,574.2066 L388.09,560.2183 A12.5,12.5 0 0 1 400.59,547.7183 " fill="#F1F1F1" style="stroke:#F1F1F1;stroke-width:1.0;"/><rect fill="none" height="257.4883" rx="12.5" ry="12.5" style="stroke:#181818;stroke-width:0.5;" width="468.58" x="388.09" y="547.7183"/><line style="stroke:#181818;stroke-width:0.5;" x1="388.09" x2="856.67" y1="574.2066" y2="574.2066"/><text fill="#000000" font-family="sans-serif" font-size="14" lengthAdjust="spacing" textLength="103" x="570.88" y="566.2534">Monitorizaci&#243;n</text><ellipse cx="594.54" cy="595.2066" fill="#222222" rx="10" ry="10" style="stroke:#222222;stroke-width:1.0;"/><g id="Sistema.Monitoreo.Monitorizando"><rect fill="#F1F1F1" height="50" rx="12.5" ry="12.5" style="stroke:#181818;stroke-width:0.5;" width="121" x="534.04" y="642.2066"/><line style="stroke:#181818;stroke-width:0.5;" x1="534.04" x2="655.04" y1="668.6948" y2="668.6948"/><text fill="#000000" font-family="sans-serif" font-size="14" lengthAdjust="spacing" textLength="101" x="544.04" y="660.7417">Monitorizando</text></g><g id="Sistema.Monitoreo.AlertaLeve"><rect fill="#F1F1F1" height="50" rx="12.5" ry="12.5" style="stroke:#181818;stroke-width:0.5;" width="91" x="464.04" y="745.2066"/><line style="stroke:#181818;stroke-width:0.5;" x1="464.04" x2="555.04" y1="771.6948" y2="771.6948"/><text fill="#000000" font-family="sans-serif" font-size="14" lengthAdjust="spacing" textLength="71" x="474.04" y="763.7417">AlertaLeve</text></g><g id="Sistema.Monitoreo.AlertaGrave"><rect fill="#F1F1F1" height="50" rx="12.5" ry="12.5" style="stroke:#181818;stroke-width:0.5;" width="100" x="629.54" y="745.2066"/><line style="stroke:#181818;stroke-width:0.5;" x1="629.54" x2="729.54" y1="771.6948" y2="771.6948"/><text fill="#000000" font-family="sans-serif" font-size="14" lengthAdjust="spacing" textLength="80" x="639.54" y="763.7417">AlertaGrave</text></g><!--link *start*Monitoreo to Monitorizando--><g id="link_*start*Monitoreo_Monitorizando"><path d="M594.54,605.6466 C594.54,614.9066 594.54,623.3966 594.54,635.8866 " fill="none" id="*start*Monitoreo-to-Monitorizando" style="stroke:#181818;stroke-width:1.0;"/><polygon fill="#181818" points="594.54,641.8866,598.54,632.8866,594.54,636.8866,590.54,632.8866,594.54,641.8866" style="stroke:#181818;stroke-width:1.0;"/></g><!--link Monitorizando to AlertaLeve--><g id="link_Monitorizando_AlertaLeve"><path d="M533.55,674.5466 C487.95,680.6966 431.07,691.8466 416.54,710.2066 C399.09,732.2466 426.6207,746.6448 458.1007,756.4348 " fill="none" id="Monitorizando-to-AlertaLeve" style="stroke:#181818;stroke-width:1.0;"/><polygon fill="#181818" points="463.83,758.2166,456.4238,751.7243,459.0556,756.7318,454.0481,759.3635,463.83,758.2166" style="stroke:#181818;stroke-width:1.0;"/><text fill="#000000" font-family="sans-serif" font-size="13" lengthAdjust="spacing" textLength="107" x="417.54" y="723.7749">Incidencia Menor</text></g><!--link AlertaLeve to Monitorizando--><g id="link_AlertaLeve_Monitorizando"><path d="M523.64,744.9966 C530.56,733.9366 539.36,720.9366 548.54,710.2066 C553.74,704.1266 555.3827,702.1394 561.3427,696.5794 " fill="none" id="AlertaLeve-to-Monitorizando" style="stroke:#181818;stroke-width:1.0;"/><polygon fill="#181818" points="565.73,692.4866,556.4205,695.701,562.0739,695.8973,561.8776,701.5507,565.73,692.4866" style="stroke:#181818;stroke-width:1.0;"/><text fill="#000000" font-family="sans-serif" font-size="13" lengthAdjust="spacing" textLength="69" x="549.54" y="723.7749">Resoluci&#243;n</text></g><!--link Monitorizando to AlertaGrave--><g id="link_Monitorizando_AlertaGrave"><path d="M613.94,692.4966 C622.6,703.2166 632.98,715.9166 642.54,727.2066 C647.43,732.9866 648.8196,734.6393 653.8896,740.4093 " fill="none" id="Monitorizando-to-AlertaGrave" style="stroke:#181818;stroke-width:1.0;"/><polygon fill="#181818" points="657.85,744.9166,654.9142,735.5154,654.5496,741.1605,648.9046,740.796,657.85,744.9166" style="stroke:#181818;stroke-width:1.0;"/><text fill="#000000" font-family="sans-serif" font-size="13" lengthAdjust="spacing" textLength="106" x="643.54" y="723.7749">Incidencia Mayor</text></g><!--link AlertaGrave to Monitorizando--><g id="link_AlertaGrave_Monitorizando"><path d="M729.69,749.0766 C748.09,738.6966 761.94,725.0866 750.54,710.2066 C738.72,694.7866 699.9369,684.8095 661.3969,677.9395 " fill="none" id="AlertaGrave-to-Monitorizando" style="stroke:#181818;stroke-width:1.0;"/><polygon fill="#181818" points="655.49,676.8866,663.6484,682.4039,660.4124,677.764,665.0523,674.528,655.49,676.8866" style="stroke:#181818;stroke-width:1.0;"/><text fill="#000000" font-family="sans-serif" font-size="13" lengthAdjust="spacing" textLength="91" x="755.67" y="723.7749">Normalizaci&#243;n</text></g><!--link Servicio to Flota--><g id="link_Servicio_Flota"><path d="M309.84,443.4183 C301.12,460.9383 294.9909,473.2455 286.3609,490.6055 " fill="none" id="Servicio-to-Flota" style="stroke:#181818;stroke-width:1.0;"/><polygon fill="#181818" points="283.69,495.9783,291.2782,489.6998,285.9157,491.501,284.1145,486.1386,283.69,495.9783" style="stroke:#181818;stroke-width:1.0;"/><text fill="#000000" font-family="sans-serif" font-size="13" lengthAdjust="spacing" textLength="64" x="295.97" y="474.7866">"gestiona"</text></g><!--link Servicio to Monitoreo--><g id="link_Servicio_Monitoreo"><path d="M506.93,443.4183 C524.48,478.6883 539.6686,509.2058 555.9186,541.8858 " fill="none" id="Servicio-to-Monitoreo" style="stroke:#181818;stroke-width:1.0;"/><polygon fill="#181818" points="558.59,547.2583,558.1645,537.4186,556.3638,542.7812,551.0012,540.9805,558.59,547.2583" style="stroke:#181818;stroke-width:1.0;"/><text fill="#000000" font-family="sans-serif" font-size="13" lengthAdjust="spacing" textLength="62" x="522.8" y="474.7866">"controla"</text></g><!--SRC=[bLMnRjim4Dtz5OJ70aRt30K2jmaAn4NW15sA3bVfuXn0yTGZ9Q0jyZ7zW4pTklh7UgHbMPHbmzLWaF9xnqU-TvGnnlW00StyWNp02ao9vb70-PebuDo0D_j_VirCz_I3FHUbfO9u1-yc0tnylhpvQXQBT-Qw2DIokJ9BGP0UdM6pIKU8t8V6r-XAAYF_eokeHFq1SolGOaOQ82FnWrk12-Ye8dGXijVulI4Kr44D0WLj_xXp5NhPQ_HicuGtw-tlcaguIFknX7n-BxmHgA3CZs9CoxJSa0DBF_KOCz15UfOe0cLN9RcEbNeE9RoTz6IFZzpevPLvJxvW5yWr5_deMACYj7aEXfyw9HaWRLSJfOlKGcfi3JOAungd38hFmgpOKM11DfqMdW3TeW_9CAr6VMpy17AfHOJJia-MGswjnY7jed_vSh8Z1dLkOftK6MbqeYtqC6lToZUBZmgofuzn11oHxq5qPrRT-OpFszUYiUnLzvby77CdvCIK9F6Q_W1DJCab2eSL4tyfszT01SJqR__QGBL5RwvRrFSZFtBygLtkkvUTrbbofVKqG8DIfotgagFjaxAL73gaQTgb0yULPwAUmNOjQr42t66B-SsrGiUIj-W1URHYVlty__hfdXm9W1-J0dRGAGMVMAfqw-GYNcRziFy2zBuhRRw9JSWEvjEumz4hjjYrZs9dkzh_0000]--></g></svg>