<?xml version="1.0" encoding="us-ascii" standalone="no"?><svg xmlns="http://www.w3.org/2000/svg" xmlns:xlink="http://www.w3.org/1999/xlink" contentStyleType="text/css" height="784px" preserveAspectRatio="none" style="width:1176px;height:784px;background:#FFFFFF;" version="1.1" viewBox="0 0 1176 784" width="1176px" zoomAndPan="magnify"><defs/><g><g id="elem_Servicio_Diario"><rect fill="#F1F1F1" height="44.9766" style="stroke:#181818;stroke-width:0.5;" width="115" x="624" y="15.25"/><text fill="#000000" font-family="sans-serif" font-size="14" lengthAdjust="spacing" textLength="101" x="631" y="30.7852">Servicio_Diario</text><line style="stroke:#181818;stroke-width:0.5;" x1="625" x2="738" y1="35.7383" y2="35.7383"/><text fill="#000000" font-family="sans-serif" font-size="14" lengthAdjust="spacing" textLength="31" x="630" y="53.2734">ID: 1</text></g><g id="elem_Ruta_1"><rect fill="#F1F1F1" height="44.9766" style="stroke:#181818;stroke-width:0.5;" width="61" x="646" y="161.96"/><text fill="#000000" font-family="sans-serif" font-size="14" lengthAdjust="spacing" textLength="47" x="653" y="177.4952">Ruta_1</text><line style="stroke:#181818;stroke-width:0.5;" x1="647" x2="706" y1="182.4483" y2="182.4483"/><text fill="#000000" font-family="sans-serif" font-size="14" lengthAdjust="spacing" textLength="31" x="652" y="199.9834">ID: 1</text></g><g id="elem_Horario"><rect fill="#F1F1F1" height="61.4648" style="stroke:#181818;stroke-width:0.5;" width="118" x="611.5" y="308.66"/><text fill="#000000" font-family="sans-serif" font-size="14" lengthAdjust="spacing" textLength="52" x="644.5" y="324.1952">Horario</text><line style="stroke:#181818;stroke-width:0.5;" x1="612.5" x2="728.5" y1="329.1483" y2="329.1483"/><text fill="#000000" font-family="sans-serif" font-size="14" lengthAdjust="spacing" textLength="106" x="617.5" y="346.6834">"12:00 - 14:00"</text><text fill="#000000" font-family="sans-serif" font-size="14" lengthAdjust="spacing" textLength="106" x="617.5" y="363.1717">"16:00 - 20:00"</text></g><g id="elem_Parada_1"><rect fill="#F1F1F1" height="44.9766" style="stroke:#181818;stroke-width:0.5;" width="183" x="765" y="316.91"/><text fill="#000000" font-family="sans-serif" font-size="14" lengthAdjust="spacing" textLength="63" x="825" y="332.4452">Parada_1</text><line style="stroke:#181818;stroke-width:0.5;" x1="766" x2="947" y1="337.3983" y2="337.3983"/><text fill="#000000" font-family="sans-serif" font-size="14" lengthAdjust="spacing" textLength="171" x="771" y="354.9334">"Ubicaci&#243;n: Plaza del Sol"</text></g><g id="elem_Parada_2"><rect fill="#F1F1F1" height="44.9766" style="stroke:#181818;stroke-width:0.5;" width="186" x="983.5" y="316.91"/><text fill="#000000" font-family="sans-serif" font-size="14" lengthAdjust="spacing" textLength="63" x="1045" y="332.4452">Parada_2</text><line style="stroke:#181818;stroke-width:0.5;" x1="984.5" x2="1168.5" y1="337.3983" y2="337.3983"/><text fill="#000000" font-family="sans-serif" font-size="14" lengthAdjust="spacing" textLength="174" x="989.5" y="354.9334">"Ubicaci&#243;n: Plaza Espa&#241;a"</text></g><g id="elem_Conductor_1"><rect fill="#F1F1F1" height="61.4648" style="stroke:#181818;stroke-width:0.5;" width="108" x="471.5" y="7"/><text fill="#000000" font-family="sans-serif" font-size="14" lengthAdjust="spacing" textLength="89" x="481" y="22.5352">Conductor_1</text><line style="stroke:#181818;stroke-width:0.5;" x1="472.5" x2="578.5" y1="27.4883" y2="27.4883"/><text fill="#000000" font-family="sans-serif" font-size="14" lengthAdjust="spacing" textLength="58" x="477.5" y="45.0234">ID: 1234</text><text fill="#000000" font-family="sans-serif" font-size="14" lengthAdjust="spacing" textLength="96" x="477.5" y="61.5117">Nombre: Pepe</text></g><g id="elem_Conductor_2"><rect fill="#F1F1F1" height="61.4648" style="stroke:#181818;stroke-width:0.5;" width="103" x="322" y="7"/><text fill="#000000" font-family="sans-serif" font-size="14" lengthAdjust="spacing" textLength="89" x="329" y="22.5352">Conductor_2</text><line style="stroke:#181818;stroke-width:0.5;" x1="323" x2="424" y1="27.4883" y2="27.4883"/><text fill="#000000" font-family="sans-serif" font-size="14" lengthAdjust="spacing" textLength="58" x="328" y="45.0234">ID: 1235</text><text fill="#000000" font-family="sans-serif" font-size="14" lengthAdjust="spacing" textLength="91" x="328" y="61.5117">Nombre: Jose</text></g><g id="elem_Veh&#237;culo_1"><rect fill="#F1F1F1" height="77.9531" style="stroke:#181818;stroke-width:0.5;" width="110" x="455.5" y="145.47"/><text fill="#000000" font-family="sans-serif" font-size="14" lengthAdjust="spacing" textLength="75" x="473" y="161.0052">Veh&#237;culo_1</text><line style="stroke:#181818;stroke-width:0.5;" x1="456.5" x2="564.5" y1="165.9583" y2="165.9583"/><text fill="#000000" font-family="sans-serif" font-size="14" lengthAdjust="spacing" textLength="63" x="461.5" y="183.4934">Tipo: Bus</text><text fill="#000000" font-family="sans-serif" font-size="14" lengthAdjust="spacing" textLength="98" x="461.5" y="199.9817">Capacidad: 50</text><text fill="#000000" font-family="sans-serif" font-size="14" lengthAdjust="spacing" textLength="31" x="461.5" y="216.47">ID: 1</text></g><g id="elem_Veh&#237;culo_2"><rect fill="#F1F1F1" height="77.9531" style="stroke:#181818;stroke-width:0.5;" width="110" x="193.5" y="145.47"/><text fill="#000000" font-family="sans-serif" font-size="14" lengthAdjust="spacing" textLength="75" x="211" y="161.0052">Veh&#237;culo_2</text><line style="stroke:#181818;stroke-width:0.5;" x1="194.5" x2="302.5" y1="165.9583" y2="165.9583"/><text fill="#000000" font-family="sans-serif" font-size="14" lengthAdjust="spacing" textLength="63" x="199.5" y="183.4934">Tipo: Bus</text><text fill="#000000" font-family="sans-serif" font-size="14" lengthAdjust="spacing" textLength="98" x="199.5" y="199.9817">Capacidad: 40</text><text fill="#000000" font-family="sans-serif" font-size="14" lengthAdjust="spacing" textLength="31" x="199.5" y="216.47">ID: 2</text></g><g id="elem_Flota_1"><rect fill="#F1F1F1" height="44.9766" style="stroke:#181818;stroke-width:0.5;" width="126" x="185.5" y="316.91"/><text fill="#000000" font-family="sans-serif" font-size="14" lengthAdjust="spacing" textLength="50" x="223.5" y="332.4452">Flota_1</text><line style="stroke:#181818;stroke-width:0.5;" x1="186.5" x2="310.5" y1="337.3983" y2="337.3983"/><text fill="#000000" font-family="sans-serif" font-size="14" lengthAdjust="spacing" textLength="114" x="191.5" y="354.9334">Empresa: UNEAT</text></g><g id="elem_Incidencia_1"><rect fill="#F1F1F1" height="77.9531" style="stroke:#181818;stroke-width:0.5;" width="135" x="347" y="300.42"/><text fill="#000000" font-family="sans-serif" font-size="14" lengthAdjust="spacing" textLength="85" x="372" y="315.9552">Incidencia_1</text><line style="stroke:#181818;stroke-width:0.5;" x1="348" x2="481" y1="320.9083" y2="320.9083"/><text fill="#000000" font-family="sans-serif" font-size="14" lengthAdjust="spacing" textLength="106" x="353" y="338.4434">Tipo: Accidente</text><text fill="#000000" font-family="sans-serif" font-size="14" lengthAdjust="spacing" textLength="96" x="353" y="354.9317">Estado: Activo</text><text fill="#000000" font-family="sans-serif" font-size="14" lengthAdjust="spacing" textLength="123" x="353" y="371.42">Urgencia: M&#225;xima</text></g><g id="elem_Pasajero_1"><rect fill="#F1F1F1" height="61.4648" style="stroke:#181818;stroke-width:0.5;" width="105" x="431" y="455.37"/><text fill="#000000" font-family="sans-serif" font-size="14" lengthAdjust="spacing" textLength="74" x="446.5" y="470.9052">Pasajero_1</text><line style="stroke:#181818;stroke-width:0.5;" x1="432" x2="535" y1="475.8583" y2="475.8583"/><text fill="#000000" font-family="sans-serif" font-size="14" lengthAdjust="spacing" textLength="78" x="437" y="493.3934">Asiento: 33</text><text fill="#000000" font-family="sans-serif" font-size="14" lengthAdjust="spacing" textLength="93" x="437" y="509.8817">Nombre: Juan</text></g><g id="elem_Pasajero_2"><rect fill="#F1F1F1" height="61.4648" style="stroke:#181818;stroke-width:0.5;" width="101" x="117" y="7"/><text fill="#000000" font-family="sans-serif" font-size="14" lengthAdjust="spacing" textLength="74" x="130.5" y="22.5352">Pasajero_2</text><line style="stroke:#181818;stroke-width:0.5;" x1="118" x2="217" y1="27.4883" y2="27.4883"/><text fill="#000000" font-family="sans-serif" font-size="14" lengthAdjust="spacing" textLength="79" x="123" y="45.0234">Asiento: 5A</text><text fill="#000000" font-family="sans-serif" font-size="14" lengthAdjust="spacing" textLength="89" x="123" y="61.5117">Nombre: Jota</text></g><g id="elem_Tarifa_1"><rect fill="#F1F1F1" height="44.9766" style="stroke:#181818;stroke-width:0.5;" width="110" x="428.5" y="593.84"/><text fill="#000000" font-family="sans-serif" font-size="14" lengthAdjust="spacing" textLength="56" x="455.5" y="609.3752">Tarifa_1</text><line style="stroke:#181818;stroke-width:0.5;" x1="429.5" x2="537.5" y1="614.3283" y2="614.3283"/><text fill="#000000" font-family="sans-serif" font-size="14" lengthAdjust="spacing" textLength="98" x="434.5" y="631.8634">Tipo: Diurna 1</text></g><g id="elem_Tarifa_2"><rect fill="#F1F1F1" height="44.9766" style="stroke:#181818;stroke-width:0.5;" width="110" x="33.5" y="161.96"/><text fill="#000000" font-family="sans-serif" font-size="14" lengthAdjust="spacing" textLength="56" x="60.5" y="177.4952">Tarifa_2</text><line style="stroke:#181818;stroke-width:0.5;" x1="34.5" x2="142.5" y1="182.4483" y2="182.4483"/><text fill="#000000" font-family="sans-serif" font-size="14" lengthAdjust="spacing" textLength="98" x="39.5" y="199.9834">Tipo: Diurna 2</text></g><g id="elem_Abono_1"><rect fill="#F1F1F1" height="61.4648" style="stroke:#181818;stroke-width:0.5;" width="142" x="412.5" y="715.82"/><text fill="#000000" font-family="sans-serif" font-size="14" lengthAdjust="spacing" textLength="62" x="452.5" y="731.3552">Abono_1</text><line style="stroke:#181818;stroke-width:0.5;" x1="413.5" x2="553.5" y1="736.3083" y2="736.3083"/><text fill="#000000" font-family="sans-serif" font-size="14" lengthAdjust="spacing" textLength="108" x="418.5" y="753.8434">M&#233;todo: Tarjeta</text><text fill="#000000" font-family="sans-serif" font-size="14" lengthAdjust="spacing" textLength="130" x="418.5" y="770.3317">Cantidad: 10 viajes</text></g><g id="elem_Abono_2"><rect fill="#F1F1F1" height="61.4648" style="stroke:#181818;stroke-width:0.5;" width="133" x="7" y="308.66"/><text fill="#000000" font-family="sans-serif" font-size="14" lengthAdjust="spacing" textLength="62" x="42.5" y="324.1952">Abono_2</text><line style="stroke:#181818;stroke-width:0.5;" x1="8" x2="139" y1="329.1483" y2="329.1483"/><text fill="#000000" font-family="sans-serif" font-size="14" lengthAdjust="spacing" textLength="108" x="13" y="346.6834">M&#233;todo: Tarjeta</text><text fill="#000000" font-family="sans-serif" font-size="14" lengthAdjust="spacing" textLength="121" x="13" y="363.1717">Cantidad: 5 viajes</text></g><!--link Servicio_Diario to Ruta_1--><g id="link_Servicio_Diario_Ruta_1"><path codeLine="86" d="M680.74,60.71 C679.8,88.07 678.397,128.5036 677.457,155.7336 " fill="none" id="Servicio_Diario-to-Ruta_1" style="stroke:#181818;stroke-width:1.0;"/><polygon fill="#181818" points="677.25,161.73,681.5581,152.8734,677.4225,156.733,673.5629,152.5974,677.25,161.73" style="stroke:#181818;stroke-width:1.0;"/><text fill="#000000" font-family="sans-serif" font-size="13" lengthAdjust="spacing" textLength="39" x="680.3" y="112.0384">ofrece</text></g><!--link Ruta_1 to Parada_1--><g id="link_Ruta_1_Parada_1"><path codeLine="87" d="M702.29,207.36 C736.51,236.44 791.987,283.5857 826.187,312.6357 " fill="none" id="Ruta_1-to-Parada_1" style="stroke:#181818;stroke-width:1.0;"/><polygon fill="#181818" points="830.76,316.52,826.4901,307.6449,826.9492,313.2831,821.311,313.7421,830.76,316.52" style="stroke:#181818;stroke-width:1.0;"/><text fill="#000000" font-family="sans-serif" font-size="13" lengthAdjust="spacing" textLength="31" x="772.9" y="266.9884">tiene</text></g><!--link Ruta_1 to Parada_2--><g id="link_Ruta_1_Parada_2"><path codeLine="88" d="M707.22,197.19 C774,222.72 927.6358,281.4769 1013.5658,314.3369 " fill="none" id="Ruta_1-to-Parada_2" style="stroke:#181818;stroke-width:1.0;"/><polygon fill="#181818" points="1019.17,316.48,1012.1924,309.5292,1014.4998,314.6941,1009.335,317.0015,1019.17,316.48" style="stroke:#181818;stroke-width:1.0;"/><text fill="#000000" font-family="sans-serif" font-size="13" lengthAdjust="spacing" textLength="31" x="889.49" y="266.9884">tiene</text></g><!--link Ruta_1 to Horario--><g id="link_Ruta_1_Horario"><path codeLine="89" d="M675.64,207.36 C674.6,233.87 673.074,272.6546 671.914,302.3746 " fill="none" id="Ruta_1-to-Horario" style="stroke:#181818;stroke-width:1.0;"/><polygon fill="#181818" points="671.68,308.37,676.028,299.5329,671.875,303.3738,668.0341,299.2208,671.68,308.37" style="stroke:#181818;stroke-width:1.0;"/><text fill="#000000" font-family="sans-serif" font-size="13" lengthAdjust="spacing" textLength="31" x="674.68" y="266.9884">tiene</text></g><!--link Conductor_1 to Ruta_1--><g id="link_Conductor_1_Ruta_1"><path codeLine="90" d="M556.79,68.72 C585.64,96.37 623.4569,132.6198 649.2869,157.3598 " fill="none" id="Conductor_1-to-Ruta_1" style="stroke:#181818;stroke-width:1.0;"/><polygon fill="#181818" points="653.62,161.51,649.8872,152.3959,650.0091,158.0515,644.3536,158.1734,653.62,161.51" style="stroke:#181818;stroke-width:1.0;"/><text fill="#000000" font-family="sans-serif" font-size="13" lengthAdjust="spacing" textLength="34" x="606.53" y="112.0384">sigue</text></g><!--link Conductor_2 to Ruta_1--><g id="link_Conductor_2_Ruta_1"><path codeLine="91" d="M401,68.89 C417.16,84.92 438.84,103.69 461.5,115.47 C511.05,141.21 530.4,128.2 583.5,145.47 C604.56,152.32 622.1126,159.339 639.9926,167.069 " fill="none" id="Conductor_2-to-Ruta_1" style="stroke:#181818;stroke-width:1.0;"/><polygon fill="#181818" points="645.5,169.45,638.8263,162.207,640.9105,167.4659,635.6517,169.5501,645.5,169.45" style="stroke:#181818;stroke-width:1.0;"/><text fill="#000000" font-family="sans-serif" font-size="13" lengthAdjust="spacing" textLength="34" x="462.5" y="112.0384">sigue</text></g><!--link Conductor_1 to Veh?culo_1--><g id="link_Conductor_1_Veh&#237;culo_1"><path codeLine="92" d="M514.59,68.73 C511.69,78.12 508.95,88.61 507.5,98.47 C505.26,113.66 504.981,124.5408 505.861,139.2208 " fill="none" id="Conductor_1-to-Veh&#237;culo_1" style="stroke:#181818;stroke-width:1.0;"/><polygon fill="#181818" points="506.22,145.21,509.6743,135.9868,505.9208,140.219,501.6886,136.4655,506.22,145.21" style="stroke:#181818;stroke-width:1.0;"/><text fill="#000000" font-family="sans-serif" font-size="13" lengthAdjust="spacing" textLength="53" x="508.5" y="112.0384">conduce</text></g><!--link Conductor_2 to Veh?culo_2--><g id="link_Conductor_2_Veh&#237;culo_2"><path codeLine="93" d="M325,68.91 C313.46,77.53 301.8,87.57 292.5,98.47 C280.74,112.24 273.5736,124.2605 266.2836,139.7605 " fill="none" id="Conductor_2-to-Veh&#237;culo_2" style="stroke:#181818;stroke-width:1.0;"/><polygon fill="#181818" points="263.73,145.19,271.18,138.7482,265.858,140.6654,263.9408,135.3434,263.73,145.19" style="stroke:#181818;stroke-width:1.0;"/><text fill="#000000" font-family="sans-serif" font-size="13" lengthAdjust="spacing" textLength="53" x="293.5" y="112.0384">conduce</text></g><!--link Veh?culo_1 to Flota_1--><g id="link_Veh&#237;culo_1_Flota_1"><path codeLine="94" d="M455.26,217.69 C404.36,247.41 335.402,287.6655 291.112,313.5155 " fill="none" id="Veh&#237;culo_1-to-Flota_1" style="stroke:#181818;stroke-width:1.0;"/><polygon fill="#181818" points="285.93,316.54,295.7192,315.4579,290.2483,314.0196,291.6866,308.5487,285.93,316.54" style="stroke:#181818;stroke-width:1.0;"/><text fill="#000000" font-family="sans-serif" font-size="13" lengthAdjust="spacing" textLength="22" x="388.36" y="266.9884">usa</text></g><!--link Veh?culo_2 to Flota_1--><g id="link_Veh&#237;culo_2_Flota_1"><path codeLine="95" d="M248.5,223.65 C248.5,253.02 248.5,286.55 248.5,310.71 " fill="none" id="Veh&#237;culo_2-to-Flota_1" style="stroke:#181818;stroke-width:1.0;"/><polygon fill="#181818" points="248.5,316.71,252.5,307.71,248.5,311.71,244.5,307.71,248.5,316.71" style="stroke:#181818;stroke-width:1.0;"/><text fill="#000000" font-family="sans-serif" font-size="13" lengthAdjust="spacing" textLength="22" x="249.5" y="266.9884">usa</text></g><!--link Veh?culo_1 to Incidencia_1--><g id="link_Veh&#237;culo_1_Incidencia_1"><path codeLine="96" d="M486.52,223.65 C471.86,247.01 456.36,271.6983 441.69,295.0683 " fill="none" id="Veh&#237;culo_1-to-Incidencia_1" style="stroke:#181818;stroke-width:1.0;"/><polygon fill="#181818" points="438.5,300.15,446.6728,294.654,441.1583,295.9152,439.8971,290.4007,438.5,300.15" style="stroke:#181818;stroke-width:1.0;"/><text fill="#000000" font-family="sans-serif" font-size="13" lengthAdjust="spacing" textLength="32" x="466.38" y="266.9884">sufre</text></g><!--link Conductor_2 to Incidencia_1--><g id="link_Conductor_2_Incidencia_1"><path codeLine="97" d="M374.53,68.61 C376.47,112.99 381.78,198.79 395.5,270.42 C397.37,280.17 398.3656,284.7657 401.0256,294.4157 " fill="none" id="Conductor_2-to-Incidencia_1" style="stroke:#181818;stroke-width:1.0;"/><polygon fill="#181818" points="402.62,300.2,404.0846,290.4606,401.2913,295.3798,396.3722,292.5865,402.62,300.2" style="stroke:#181818;stroke-width:1.0;"/><text fill="#000000" font-family="sans-serif" font-size="13" lengthAdjust="spacing" textLength="45" x="388.59" y="189.5084">reporta</text></g><!--link Incidencia_1 to Pasajero_1--><g id="link_Incidencia_1_Pasajero_1"><path codeLine="98" d="M432.81,378.8 C444.23,402.74 456.129,427.6935 466.679,449.8335 " fill="none" id="Incidencia_1-to-Pasajero_1" style="stroke:#181818;stroke-width:1.0;stroke-dasharray:7.0,7.0;"/><polygon fill="#181818" points="469.26,455.25,468.9995,445.4046,467.1091,450.7363,461.7775,448.846,469.26,455.25" style="stroke:#181818;stroke-width:1.0;"/><text fill="#000000" font-family="sans-serif" font-size="13" lengthAdjust="spacing" textLength="38" x="454.13" y="421.9384">afecta</text></g><!--link Pasajero_1 to Veh?culo_1--><g id="link_Pasajero_1_Veh&#237;culo_1"><path codeLine="99" d="M494.17,455.07 C497.07,445.68 499.86,435.2 501.5,425.37 C513.29,354.87 513.4788,277.1479 512.2188,229.5579 " fill="none" id="Pasajero_1-to-Veh&#237;culo_1" style="stroke:#181818;stroke-width:1.0;"/><polygon fill="#181818" points="512.06,223.56,508.2996,232.6627,512.1923,228.5582,516.2968,232.451,512.06,223.56" style="stroke:#181818;stroke-width:1.0;"/><text fill="#000000" font-family="sans-serif" font-size="13" lengthAdjust="spacing" textLength="22" x="513.11" y="344.4684">usa</text></g><!--link Pasajero_1 to Tarifa_1--><g id="link_Pasajero_1_Tarifa_1"><path codeLine="100" d="M483.5,517.17 C483.5,540.56 483.5,566.47 483.5,587.47 " fill="none" id="Pasajero_1-to-Tarifa_1" style="stroke:#181818;stroke-width:1.0;"/><polygon fill="#181818" points="483.5,593.47,487.5,584.47,483.5,588.47,479.5,584.47,483.5,593.47" style="stroke:#181818;stroke-width:1.0;"/><text fill="#000000" font-family="sans-serif" font-size="13" lengthAdjust="spacing" textLength="30" x="484.5" y="560.4084">paga</text></g><!--link Pasajero_2 to Veh?culo_2--><g id="link_Pasajero_2_Veh&#237;culo_2"><path codeLine="101" d="M180.88,68.69 C187.57,83.06 196.02,100.38 204.5,115.47 C210.01,125.27 213.1215,130.5455 219.2715,140.0955 " fill="none" id="Pasajero_2-to-Veh&#237;culo_2" style="stroke:#181818;stroke-width:1.0;"/><polygon fill="#181818" points="222.52,145.14,221.0102,135.4076,219.8129,140.9363,214.2842,139.739,222.52,145.14" style="stroke:#181818;stroke-width:1.0;"/><text fill="#000000" font-family="sans-serif" font-size="13" lengthAdjust="spacing" textLength="22" x="205.5" y="112.0384">usa</text></g><!--link Pasajero_2 to Tarifa_2--><g id="link_Pasajero_2_Tarifa_2"><path codeLine="102" d="M148.11,68.79 C142.26,78.18 135.95,88.66 130.5,98.47 C118.84,119.47 109.3811,138.7341 101.2011,156.0641 " fill="none" id="Pasajero_2-to-Tarifa_2" style="stroke:#181818;stroke-width:1.0;"/><polygon fill="#181818" points="98.64,161.49,106.099,155.0585,100.7743,156.9684,98.8644,151.6437,98.64,161.49" style="stroke:#181818;stroke-width:1.0;"/><text fill="#000000" font-family="sans-serif" font-size="13" lengthAdjust="spacing" textLength="30" x="131.5" y="112.0384">paga</text></g><!--link Tarifa_1 to Abono_1--><g id="link_Tarifa_1_Abono_1"><path codeLine="103" d="M483.5,639.08 C483.5,660.08 483.5,686.07 483.5,709.5 " fill="none" id="Tarifa_1-to-Abono_1" style="stroke:#181818;stroke-width:1.0;"/><polygon fill="#181818" points="483.5,715.5,487.5,706.5,483.5,710.5,479.5,706.5,483.5,715.5" style="stroke:#181818;stroke-width:1.0;"/><text fill="#000000" font-family="sans-serif" font-size="13" lengthAdjust="spacing" textLength="133" x="484.5" y="682.3884">se emplea para pagar</text></g><!--link Tarifa_2 to Abono_2--><g id="link_Tarifa_2_Abono_2"><path codeLine="104" d="M86.35,207.36 C83.75,233.87 79.9447,272.6786 77.0347,302.3986 " fill="none" id="Tarifa_2-to-Abono_2" style="stroke:#181818;stroke-width:1.0;"/><polygon fill="#181818" points="76.45,308.37,81.308,299.8026,76.9372,303.3938,73.3461,299.023,76.45,308.37" style="stroke:#181818;stroke-width:1.0;"/><text fill="#000000" font-family="sans-serif" font-size="13" lengthAdjust="spacing" textLength="133" x="82.45" y="266.9884">se emplea para pagar</text></g><!--SRC=[ZLNDZjem4BxdAIpkhC103pciH1UgRgLThRhGwshY362Kn97jeFwe3zDZ3prKVGHUR2S997OsY780Cj-FPyOpoax6o8JK8i5WL_x7DBVVM8ffXDe4WOhsA2nxHdsGGggNXGGj5ViHCFhSBq8s3dushC-5XPVn1V2ZqevqCERXQCI6R3obty4fzgwEyL4LQxLFe25khGVhI0eGylWl2zbJ0j-1nPYmPvNqYFXbqTBaSFmBhkXEPN4XhD9-7NmohHuULHff93tcsAlYlchcgJufuwg-uExuHnI9QivQoLo5x7rXggSxo2dV6EAGpKQzFMqT-3M7QUl07OSFYNBkR9dc6Ws4RFsudAySsdr6DaXVqCbrBYh0Ogqt5k8gQkL1LQ6rtbQwa3qSVtsLANWtP62Fkgr_RYHvaS5auZUkWAnFnxkwsRpJSEkUjw81t7GhMCX2P-2rzSJZVJotUVD8PMto3yVVLfNLatoFT71z0vcjBs0yOWT9QPit1lp_36QElhkFm-7jUVj2Db0RZG87mIbIWiq64MofMRqexqVFczk2xfRuHnkvBJm2lqQe7TnT89Qeu1uZT-9TdgilUUUv9avXmCNv5RpMUmDVfbrGJz-cqwLfp9MsvES1DpUtxgmJ3pPq_KHpeZrTg3BhK9eP9Zo7hKlexP3lmLqFtdeqhYLy7kkoxEg5a22md4Q4bMJTiBd3vfVPhm00]--></g></svg>