<?xml version="1.0" encoding="us-ascii" standalone="no"?><svg xmlns="http://www.w3.org/2000/svg" xmlns:xlink="http://www.w3.org/1999/xlink" contentStyleType="text/css" height="711px" preserveAspectRatio="none" style="width:483px;height:711px;background:#FFFFFF;" version="1.1" viewBox="0 0 483 711" width="483px" zoomAndPan="magnify"><defs/><g><!--cluster Sistema de Transporte P?blico--><g id="cluster_Sistema de Transporte P&#250;blico"><path d="M8.5,6 L230.5,6 A3.75,3.75 0 0 1 233,8.5 L240,28.4883 L473.5,28.4883 A2.5,2.5 0 0 1 476,30.9883 L476,701.92 A2.5,2.5 0 0 1 473.5,704.42 L8.5,704.42 A2.5,2.5 0 0 1 6,701.92 L6,8.5 A2.5,2.5 0 0 1 8.5,6 " fill="none" style="stroke:#000000;stroke-width:1.5;"/><line style="stroke:#000000;stroke-width:1.5;" x1="6" x2="240" y1="28.4883" y2="28.4883"/><text fill="#000000" font-family="sans-serif" font-size="14" font-weight="bold" lengthAdjust="spacing" textLength="221" x="10" y="21.5352">Sistema de Transporte P&#250;blico</text></g><!--class Servicio--><g id="elem_Servicio"><rect fill="#F1F1F1" height="26.4883" id="Servicio" rx="2.5" ry="2.5" style="stroke:#181818;stroke-width:0.5;" width="59" x="104.5" y="41"/><text fill="#000000" font-family="sans-serif" font-size="14" lengthAdjust="spacing" textLength="53" x="107.5" y="59.5352">Servicio</text></g><!--class Ruta--><g id="elem_Ruta"><rect fill="#F1F1F1" height="26.4883" id="Ruta" rx="2.5" ry="2.5" style="stroke:#181818;stroke-width:0.5;" width="37" x="314.5" y="144.49"/><text fill="#000000" font-family="sans-serif" font-size="14" lengthAdjust="spacing" textLength="31" x="317.5" y="163.0252">Ruta</text></g><!--class Flota--><g id="elem_Flota"><rect fill="#F1F1F1" height="26.4883" id="Flota" rx="2.5" ry="2.5" style="stroke:#181818;stroke-width:0.5;" width="40" x="22" y="351.47"/><text fill="#000000" font-family="sans-serif" font-size="14" lengthAdjust="spacing" textLength="34" x="25" y="370.0052">Flota</text></g><!--class Horario--><g id="elem_Horario"><rect fill="#F1F1F1" height="26.4883" id="Horario" rx="2.5" ry="2.5" style="stroke:#181818;stroke-width:0.5;" width="58" x="314" y="247.98"/><text fill="#000000" font-family="sans-serif" font-size="14" lengthAdjust="spacing" textLength="52" x="317" y="266.5152">Horario</text></g><!--class Parada--><g id="elem_Parada"><rect fill="#F1F1F1" height="26.4883" id="Parada" rx="2.5" ry="2.5" style="stroke:#181818;stroke-width:0.5;" width="53" x="407.5" y="247.98"/><text fill="#000000" font-family="sans-serif" font-size="14" lengthAdjust="spacing" textLength="47" x="410.5" y="266.5152">Parada</text></g><!--class Conductor--><g id="elem_Conductor"><rect fill="#F1F1F1" height="26.4883" id="Conductor" rx="2.5" ry="2.5" style="stroke:#181818;stroke-width:0.5;" width="79" x="161.5" y="144.49"/><text fill="#000000" font-family="sans-serif" font-size="14" lengthAdjust="spacing" textLength="73" x="164.5" y="163.0252">Conductor</text></g><!--class Veh?culo--><g id="elem_Veh&#237;culo"><rect fill="#F1F1F1" height="26.4883" id="Veh&#237;culo" rx="2.5" ry="2.5" style="stroke:#181818;stroke-width:0.5;" width="65" x="59.5" y="247.98"/><text fill="#000000" font-family="sans-serif" font-size="14" lengthAdjust="spacing" textLength="59" x="62.5" y="266.5152">Veh&#237;culo</text></g><!--class Persona--><g id="elem_Persona"><rect fill="#F1F1F1" height="26.4883" id="Persona" rx="2.5" ry="2.5" style="stroke:#181818;stroke-width:0.5;" width="61" x="272.5" y="454.96"/><text fill="#000000" font-family="sans-serif" font-size="14" lengthAdjust="spacing" textLength="55" x="275.5" y="473.4952">Persona</text></g><!--class Incidencia--><g id="elem_Incidencia"><rect fill="#F1F1F1" height="26.4883" id="Incidencia" rx="2.5" ry="2.5" style="stroke:#181818;stroke-width:0.5;" width="75" x="191.5" y="351.47"/><text fill="#000000" font-family="sans-serif" font-size="14" lengthAdjust="spacing" textLength="69" x="194.5" y="370.0052">Incidencia</text></g><!--class Pasajero--><g id="elem_Pasajero"><rect fill="#F1F1F1" height="26.4883" id="Pasajero" rx="2.5" ry="2.5" style="stroke:#181818;stroke-width:0.5;" width="64" x="174" y="454.96"/><text fill="#000000" font-family="sans-serif" font-size="14" lengthAdjust="spacing" textLength="58" x="177" y="473.4952">Pasajero</text></g><!--class Tarifa--><g id="elem_Tarifa"><rect fill="#F1F1F1" height="26.4883" id="Tarifa" rx="2.5" ry="2.5" style="stroke:#181818;stroke-width:0.5;" width="46" x="183" y="558.44"/><text fill="#000000" font-family="sans-serif" font-size="14" lengthAdjust="spacing" textLength="40" x="186" y="576.9752">Tarifa</text></g><!--class M?todo_de_pago--><g id="elem_M&#233;todo_de_pago"><rect fill="#F1F1F1" height="26.4883" id="M&#233;todo_de_pago" rx="2.5" ry="2.5" style="stroke:#181818;stroke-width:0.5;" width="124" x="218" y="661.93"/><text fill="#000000" font-family="sans-serif" font-size="14" lengthAdjust="spacing" textLength="118" x="221" y="680.4652">M&#233;todo_de_pago</text></g><!--class Abono--><g id="elem_Abono"><rect fill="#F1F1F1" height="26.4883" id="Abono" rx="2.5" ry="2.5" style="stroke:#181818;stroke-width:0.5;" width="52" x="329" y="558.44"/><text fill="#000000" font-family="sans-serif" font-size="14" lengthAdjust="spacing" textLength="46" x="332" y="576.9752">Abono</text></g><!--link Servicio to Ruta--><g id="link_Servicio_Ruta"><path codeLine="7" d="M158.8,67.89 C199.12,88.46 272.6649,125.9642 308.7849,144.3842 " fill="none" id="Servicio-to-Ruta" style="stroke:#181818;stroke-width:1.0;"/><polygon fill="#181818" points="314.13,147.11,307.9296,139.4579,309.6758,144.8385,304.2952,146.5847,314.13,147.11" style="stroke:#181818;stroke-width:1.0;"/><text fill="#000000" font-family="sans-serif" font-size="13" lengthAdjust="spacing" textLength="39" x="246.41" y="111.0584">ofrece</text></g><!--link Servicio to Flota--><g id="link_Servicio_Flota"><path codeLine="8" d="M125.65,67.6 C106.26,97.16 58.54,174.93 42,247.98 C33.7,284.62 36.794,323.5353 39.454,345.0553 " fill="none" id="Servicio-to-Flota" style="stroke:#181818;stroke-width:1.0;"/><polygon fill="#181818" points="40.19,351.01,43.0557,341.5873,39.5766,346.0478,35.1162,342.5687,40.19,351.01" style="stroke:#181818;stroke-width:1.0;"/><text fill="#000000" font-family="sans-serif" font-size="13" lengthAdjust="spacing" textLength="39" x="56.57" y="214.5484">ofrece</text></g><!--link Ruta to Horario--><g id="link_Ruta_Horario"><path codeLine="9" d="M334.23,171.18 C336.15,190.66 339.2533,222.1688 341.1733,241.7088 " fill="none" id="Ruta-to-Horario" style="stroke:#181818;stroke-width:1.0;"/><polygon fill="#181818" points="341.76,247.68,344.8607,238.332,341.2711,242.704,336.8991,239.1143,341.76,247.68" style="stroke:#181818;stroke-width:1.0;"/><text fill="#000000" font-family="sans-serif" font-size="13" lengthAdjust="spacing" textLength="31" x="339.6" y="214.5484">tiene</text></g><!--reverse link Ruta to Parada--><g id="link_Ruta_Parada"><path codeLine="10" d="M356.7899,179.1903 C366.2299,187.4103 369.57,190.62 380,200.98 C395.6,216.47 412.52,235.41 423.18,247.64 " fill="none" id="Ruta-backto-Parada" style="stroke:#181818;stroke-width:1.0;"/><polygon fill="#181818" points="347.74,171.31,349.6382,178.2668,356.7899,179.1903,354.8917,172.2335,347.74,171.31" style="stroke:#181818;stroke-width:1.0;"/></g><!--link Conductor to Ruta--><g id="link_Conductor_Ruta"><path codeLine="11" d="M240.96,157.73 C265.24,157.73 289.13,157.73 308.12,157.73 " fill="none" id="Conductor-to-Ruta" style="stroke:#181818;stroke-width:1.0;"/><polygon fill="#181818" points="314.12,157.73,305.12,153.73,309.12,157.73,305.12,161.73,314.12,157.73" style="stroke:#181818;stroke-width:1.0;"/><text fill="#000000" font-family="sans-serif" font-size="13" lengthAdjust="spacing" textLength="34" x="260.5" y="151.2984">sigue</text></g><!--link Conductor to Veh?culo--><g id="link_Conductor_Veh&#237;culo"><path codeLine="12" d="M176.56,171.43 C163.4,178.97 147.37,189.31 135,200.98 C120.02,215.11 109.88,229.9429 102.18,242.7029 " fill="none" id="Conductor-to-Veh&#237;culo" style="stroke:#181818;stroke-width:1.0;"/><polygon fill="#181818" points="99.08,247.84,107.1547,242.201,101.6633,243.5591,100.3052,238.0677,99.08,247.84" style="stroke:#181818;stroke-width:1.0;"/><text fill="#000000" font-family="sans-serif" font-size="13" lengthAdjust="spacing" textLength="53" x="136" y="214.5484">conduce</text></g><!--link Conductor to Persona--><g id="link_Conductor_Persona"><path codeLine="13" d="M214.35,171.2 C230.64,187.26 257.65,216.85 271,247.98 C302.45,321.33 304.2307,401.8023 303.6707,436.4723 " fill="none" id="Conductor-to-Persona" style="stroke:#181818;stroke-width:1.0;"/><polygon fill="none" points="303.38,454.47,309.6699,436.5692,297.6715,436.3754,303.38,454.47" style="stroke:#181818;stroke-width:1.0;"/></g><!--link Conductor to Incidencia--><g id="link_Conductor_Incidencia"><path codeLine="14" d="M202.71,171.25 C207.71,207.84 221.4473,308.4353 226.4673,345.1553 " fill="none" id="Conductor-to-Incidencia" style="stroke:#181818;stroke-width:1.0;"/><polygon fill="#181818" points="227.28,351.1,230.0241,341.6411,226.6027,346.1461,222.0978,342.7247,227.28,351.1" style="stroke:#181818;stroke-width:1.0;"/><text fill="#000000" font-family="sans-serif" font-size="13" lengthAdjust="spacing" textLength="45" x="217.4" y="266.2884">reporta</text></g><!--link Veh?culo to Flota--><g id="link_Veh&#237;culo_Flota"><path codeLine="15" d="M85.87,274.67 C76.27,294.15 63.1148,320.8562 53.4848,340.3962 " fill="none" id="Veh&#237;culo-to-Flota" style="stroke:#181818;stroke-width:1.0;"/><polygon fill="#181818" points="48.18,351.16,54.4203,347.5464,53.4848,340.3962,47.2445,344.0098,48.18,351.16" style="stroke:#181818;stroke-width:1.0;"/></g><!--link Veh?culo to Incidencia--><g id="link_Veh&#237;culo_Incidencia"><path codeLine="16" d="M105.49,274.9 C119.04,287.36 140.75,306.62 161,321.47 C175.68,332.23 187.9707,339.994 201.5307,347.984 " fill="none" id="Veh&#237;culo-to-Incidencia" style="stroke:#181818;stroke-width:1.0;"/><polygon fill="#181818" points="206.7,351.03,200.9766,343.0148,202.3922,348.4917,196.9153,349.9073,206.7,351.03" style="stroke:#181818;stroke-width:1.0;"/><text fill="#000000" font-family="sans-serif" font-size="13" lengthAdjust="spacing" textLength="32" x="162" y="318.0384">sufre</text></g><!--link Incidencia to Pasajero--><g id="link_Incidencia_Pasajero"><path codeLine="17" d="M226.18,378.16 C221.77,397.63 214.5966,429.2585 210.1666,448.7985 " fill="none" id="Incidencia-to-Pasajero" style="stroke:#181818;stroke-width:1.0;stroke-dasharray:7.0,7.0;"/><polygon fill="#181818" points="208.84,454.65,214.7309,446.7572,209.9455,449.7737,206.9289,444.9883,208.84,454.65" style="stroke:#181818;stroke-width:1.0;"/><text fill="#000000" font-family="sans-serif" font-size="13" lengthAdjust="spacing" textLength="38" x="219.88" y="421.5284">afecta</text></g><!--link Pasajero to Veh?culo--><g id="link_Pasajero_Veh&#237;culo"><path codeLine="18" d="M197.64,454.72 C186.33,437.67 165.79,406.01 150,377.96 C129.39,341.33 110.4799,301.8959 100.4199,280.3659 " fill="none" id="Pasajero-to-Veh&#237;culo" style="stroke:#181818;stroke-width:1.0;"/><polygon fill="#181818" points="97.88,274.93,98.066,284.7771,99.9966,279.4599,105.3138,281.3905,97.88,274.93" style="stroke:#181818;stroke-width:1.0;"/><text fill="#000000" font-family="sans-serif" font-size="13" lengthAdjust="spacing" textLength="22" x="151" y="369.7784">usa</text></g><!--link Pasajero to Persona--><g id="link_Pasajero_Persona"><path codeLine="19" d="M238.21,468.2 C249.51,468.2 242.82,468.2 254.12,468.2 " fill="none" id="Pasajero-to-Persona" style="stroke:#181818;stroke-width:1.0;"/><polygon fill="none" points="272.12,468.2,254.12,462.2,254.12,474.2,272.12,468.2" style="stroke:#181818;stroke-width:1.0;"/></g><!--link Pasajero to Tarifa--><g id="link_Pasajero_Tarifa"><path codeLine="20" d="M206,481.64 C206,501.12 206,532.6 206,552.14 " fill="none" id="Pasajero-to-Tarifa" style="stroke:#181818;stroke-width:1.0;"/><polygon fill="#181818" points="206,558.14,210,549.14,206,553.14,202,549.14,206,558.14" style="stroke:#181818;stroke-width:1.0;"/><text fill="#000000" font-family="sans-serif" font-size="13" lengthAdjust="spacing" textLength="30" x="207" y="525.0084">paga</text></g><!--link Tarifa to M?todo_de_pago--><g id="link_Tarifa_M&#233;todo_de_pago"><path codeLine="21" d="M201.65,584.98 C197.96,597.66 194.5,617.57 203,631.93 C211.08,645.58 219.8552,652.5893 233.8952,659.0893 " fill="none" id="Tarifa-to-M&#233;todo_de_pago" style="stroke:#181818;stroke-width:1.0;"/><polygon fill="#181818" points="239.34,661.61,232.8533,654.199,234.8027,659.5094,229.4923,661.4588,239.34,661.61" style="stroke:#181818;stroke-width:1.0;"/><text fill="#000000" font-family="sans-serif" font-size="13" lengthAdjust="spacing" textLength="141" x="204" y="628.4984">se emplean para pagar</text></g><!--link Abono to M?todo_de_pago--><g id="link_Abono_M&#233;todo_de_pago"><path codeLine="22" d="M357.04,585.04 C358.48,597.78 358.83,617.73 350,631.93 C341.76,645.19 343.7725,646.7957 330.3825,653.5057 " fill="none" id="Abono-to-M&#233;todo_de_pago" style="stroke:#181818;stroke-width:1.0;"/><polygon fill="none" points="314.29,661.57,333.0706,658.8699,327.6944,648.1416,314.29,661.57" style="stroke:#181818;stroke-width:1.0;"/></g><!--SRC=[TPBFJeGm4CRlFCM4uoRT1_10OaoC7ao8k_6w6Sh0Lg4bqs9YN1_8Wo_WbHUpxIhWBik1q9dVzyqV2W2mLoM1L2mRIk3lJ6tdtg2bjY2sIOntA5-m9aWtoZfg4JosPTIsC-m8yk6xQ9GqARmV-V1iY5-LL0Q4oE2nTmXNa9gAILAw06LmsvXbA8g3ovrXP0zxnYdIfyXA2CYHiSGnVcDqsKjd66PDM5NtC-sCyT0JxOSlsJUnYeofPVQGGUuNP3HUSBhNqg_Jls9Hfh0hdAocGaAiZiClvawDRE_NCzdCakkrRmajFXF7xh4YEQyuvixcxEqYjZ3YFu-j_njLRAh3UkRm6m_8m_3fJ6bs9Uqy4ulPUCKQGktl5IC4BK_YwyBeO7yu4uz8_FX8VW00]--></g></svg>